<svg width="24" height="24" viewBox="0 0 24 24" fill="none" xmlns="http://www.w3.org/2000/svg">
<path fill-rule="evenodd" clip-rule="evenodd" d="M19.707 11.293L14.707 6.29301C14.316 5.90201 13.684 5.90201 13.293 6.29301C12.902 6.68401 12.902 7.31601 13.293 7.70701L16.586 11H5C4.447 11 4 11.448 4 12C4 12.552 4.447 13 5 13H16.586L13.293 16.293C12.902 16.684 12.902 17.316 13.293 17.707C13.488 17.902 13.744 18 14 18C14.256 18 14.512 17.902 14.707 17.707L19.707 12.707C20.098 12.316 20.098 11.684 19.707 11.293Z" fill="#475466"/>
</svg>
