<svg width="16" height="16" viewBox="0 0 16 16" fill="none" xmlns="http://www.w3.org/2000/svg">
<path fill-rule="evenodd" clip-rule="evenodd" d="M12.904 7.97878C12.7111 8.94924 12.2349 9.84068 11.5357 10.5404L8 14L4.46429 10.5404C3.76508 9.84068 3.28892 8.94924 3.09604 7.97878C2.90315 7.00832 3.0022 6.00242 3.38065 5.08828C3.75911 4.17414 4.39997 3.39282 5.2222 2.84311C6.04444 2.2934 7.01112 2 8 2C8.98888 2 9.95556 2.2934 10.7778 2.84311C11.6 3.39282 12.2409 4.17414 12.6193 5.08828C12.9978 6.00242 13.0968 7.00832 12.904 7.97878ZM10 7C10 8.10457 9.10457 9 8 9C6.89543 9 6 8.10457 6 7C6 5.89543 6.89543 5 8 5C9.10457 5 10 5.89543 10 7Z" fill="#7A8A99"/>
</svg>
