<svg width="20" height="20" viewBox="0 0 20 20" fill="none" xmlns="http://www.w3.org/2000/svg">
<path fill-rule="evenodd" clip-rule="evenodd" d="M5 11V17H15V11H5ZM17 11V17C17 18.1046 16.1046 19 15 19H5C3.89543 19 3 18.1046 3 17V11C3 9.89543 3.89543 9 5 9V6C5 3.23858 7.23858 1 10 1C12.7614 1 15 3.23858 15 6V9C16.1046 9 17 9.89543 17 11ZM13 9V5.25C13 4.44615 12.4282 3.70337 11.5 3.30144C10.5718 2.89952 9.4282 2.89952 8.5 3.30144C7.5718 3.70337 7 4.44615 7 5.25V9H13ZM10 16C8.89543 16 8 15.1046 8 14C8 12.8954 8.89543 12 10 12C11.1046 12 12 12.8954 12 14C12 15.1046 11.1046 16 10 16Z" fill="#475466"/>
</svg>
