<svg width="24" height="24" viewBox="0 0 24 24" fill="none" xmlns="http://www.w3.org/2000/svg">
<path d="M4 5C4 3.34315 5.34315 2 7 2H17C18.6569 2 20 3.34315 20 5V6.75734L18 8.75734V5C18 4.44772 17.5523 4 17 4H7C6.44772 4 6 4.44772 6 5V19C6 19.5523 6.44772 20 7 20H17C17.5523 20 18 19.5523 18 19V17.2426L20 15.2426V19C20 20.6569 18.6569 22 17 22H7C5.34315 22 4 20.6569 4 19V5Z" fill="white"/>
<path d="M8 8C8 7.44772 8.44772 7 9 7H15C15.5523 7 16 7.44772 16 8C16 8.55228 15.5523 9 15 9H9C8.44772 9 8 8.55228 8 8Z" fill="white"/>
<path d="M8 12C8 11.4477 8.44772 11 9 11H12C12.5523 11 13 11.4477 13 12C13 12.5523 12.5523 13 12 13H9C8.44772 13 8 12.5523 8 12Z" fill="white"/>
<path d="M21.7071 9.29289C22.0976 9.68342 22.0976 10.3166 21.7071 10.7071L14.5607 17.8533C14.4668 17.9472 14.3393 17.9999 14.2065 17.9997L13.498 17.9987C13.2219 17.9983 12.9983 17.7742 12.9987 17.498L12.9997 16.7927C12.9999 16.6604 13.0526 16.5335 13.1461 16.4399L20.2929 9.29289C20.6834 8.90237 21.3166 8.90237 21.7071 9.29289Z" fill="white"/>
</svg>
