<svg width="24" height="24" viewBox="0 0 24 24" fill="none" xmlns="http://www.w3.org/2000/svg">
<path fill-rule="evenodd" clip-rule="evenodd" d="M6 2H15L21 8V19C21 20.6569 19.6569 22 18 22H6C4.34315 22 3 20.6569 3 19V5C3 3.34315 4.34315 2 6 2ZM16 9H19V19C19 19.5523 18.5523 20 18 20H6C5.44772 20 5 19.5523 5 19V5C5 4.44772 5.44771 4 6 4H14V7C14 8.10457 14.8954 9 16 9Z" fill="white"/>
<path d="M16 17C16.5523 17 17 16.5523 17 16C17 15.4477 16.5523 15 16 15H15C14.4477 15 14 15.4477 14 16C14 16.5523 14.4477 17 15 17H16Z" fill="white"/>
<path d="M16 13C16.5523 13 17 12.5523 17 12C17 11.4477 16.5523 11 16 11H15C14.4477 11 14 11.4477 14 12C14 12.5523 14.4477 13 15 13H16Z" fill="white"/>
<path d="M12 16C12 16.5523 11.5523 17 11 17H8C7.44772 17 7 16.5523 7 16C7 15.4477 7.44772 15 8 15H11C11.5523 15 12 15.4477 12 16Z" fill="white"/>
<path d="M11 13C11.5523 13 12 12.5523 12 12C12 11.4477 11.5523 11 11 11H8C7.44772 11 7 11.4477 7 12C7 12.5523 7.44772 13 8 13H11Z" fill="white"/>
<path d="M12 8C12 8.55231 11.5523 9 11 9H8C7.44772 9 7 8.55231 7 8C7 7.44769 7.44772 7 8 7H11C11.5523 7 12 7.44769 12 8Z" fill="white"/>
</svg>
