<svg width="16" height="20" viewBox="0 0 16 20" fill="none" xmlns="http://www.w3.org/2000/svg">
<path fill="#ffffff" fill-rule="evenodd" clip-rule="evenodd" d="M0.390577 19.9544C0.349117 19.9826 0.300138 19.9977 0.25 19.9977C0.111929 19.9977 0 19.8857 0 19.7477V1C0 0.447715 0.447715 0 1 0H15C15.5523 0 16 0.447715 16 1V19.7477C16 19.7978 15.9849 19.8468 15.9567 19.8883C15.8791 20.0024 15.7236 20.032 15.6094 19.9544L12 17.5L8.61854 19.7994C8.24524 20.0532 7.75475 20.0532 7.38146 19.7994L4 17.5L0.390577 19.9544ZM2 16.5662L3.73951 15.5104C3.89949 15.4133 4.10029 15.4137 4.25991 15.5114L8 17.8L11.7401 15.5114C11.8997 15.4137 12.1005 15.4133 12.2605 15.5104L14 16.5662V2H2V16.5662ZM5 4H11C11.5523 4 12 4.44772 12 5C12 5.55228 11.5523 6 11 6H5C4.44772 6 4 5.55228 4 5C4 4.44772 4.44772 4 5 4ZM5 8H11C11.5523 8 12 8.44771 12 9C12 9.55229 11.5523 10 11 10H5C4.44772 10 4 9.55229 4 9C4 8.44771 4.44772 8 5 8ZM5 12H7C7.55228 12 8 12.4477 8 13C8 13.5523 7.55228 14 7 14H5C4.44772 14 4 13.5523 4 13C4 12.4477 4.44772 12 5 12Z" fill="#3D5266"/>
</svg>
