<svg width="24" height="24" viewBox="0 0 24 24" fill="none" xmlns="http://www.w3.org/2000/svg">
<path fill-rule="evenodd" clip-rule="evenodd" d="M4 4H6V3C6 2.44772 6.44772 2 7 2H8C8.55228 2 9 2.44772 9 3V4H15V3C15 2.44772 15.4477 2 16 2L17 2C17.5523 2 18 2.44772 18 3V4H20C21.1046 4 22 4.89543 22 6V20C22 21.1046 21.1046 22 20 22H4C2.89543 22 2 21.1046 2 20L2 6C2 4.89543 2.89543 4 4 4ZM4 7V20H20V7H4ZM11 9H13V11H11V9ZM6 13H8V15H6V13ZM11 13H13V15H11V13ZM16 9H18V11H16V9ZM16 13H18V15H16V13ZM6 17H8V19H6V17ZM11 17H13V19H11V17Z" fill="#3D5266"/>
</svg>
