<svg width="24" height="24" viewBox="0 0 24 24" fill="none" xmlns="http://www.w3.org/2000/svg">
<path d="M6 11C6 10.4477 6.44772 10 7 10H11C11.5523 10 12 10.4477 12 11C12 11.5523 11.5523 12 11 12H7C6.44772 12 6 11.5523 6 11Z" fill="white"/>
<path d="M7 6C6.44772 6 6 6.44772 6 7C6 7.55228 6.44772 8 7 8H15C15.5523 8 16 7.55228 16 7C16 6.44772 15.5523 6 15 6H7Z" fill="white"/>
<path fill-rule="evenodd" clip-rule="evenodd" d="M2 5C2 3.34315 3.34315 2 5 2H19C20.6569 2 22 3.34315 22 5V13C22 14.6569 20.6569 16 19 16H5C3.34315 16 2 14.6569 2 13V5ZM4 5C4 4.44772 4.44772 4 5 4H19C19.5523 4 20 4.44771 20 5V13C20 13.5523 19.5523 14 19 14H5C4.44772 14 4 13.5523 4 13V5Z" fill="white"/>
<path d="M20 17C20 18.1046 19.1046 19 18 19H6C4.89543 19 4 18.1046 4 17H20Z" fill="white"/>
<path d="M16 22C17.1046 22 18 21.1046 18 20H6C6 21.1046 6.89543 22 8 22H16Z" fill="white"/>
</svg>
