<svg width="25" height="24" viewBox="0 0 25 24" fill="none" xmlns="http://www.w3.org/2000/svg">
<path d="M10.5 9C9.94772 9 9.5 9.44772 9.5 10V16C9.5 16.5523 9.94772 17 10.5 17C11.0523 17 11.5 16.5523 11.5 16V10C11.5 9.44772 11.0523 9 10.5 9Z" fill="#E63C39"/>
<path d="M13.5 10C13.5 9.44772 13.9477 9 14.5 9C15.0523 9 15.5 9.44772 15.5 10V16C15.5 16.5523 15.0523 17 14.5 17C13.9477 17 13.5 16.5523 13.5 16V10Z" fill="#E63C39"/>
<path fill-rule="evenodd" clip-rule="evenodd" d="M8.5 2C7.94772 2 7.5 2.44772 7.5 3V4H3.5C2.94772 4 2.5 4.44772 2.5 5C2.5 5.55228 2.94772 6 3.5 6H4.5V19C4.5 20.6569 5.84315 22 7.5 22H17.5C19.1569 22 20.5 20.6569 20.5 19V6H21.5C22.0523 6 22.5 5.55228 22.5 5C22.5 4.44772 22.0523 4 21.5 4H17.5V3C17.5 2.44772 17.0523 2 16.5 2H8.5ZM17.5 20C18.0523 20 18.5 19.5523 18.5 19V6H6.5V19C6.5 19.5523 6.94771 20 7.5 20H17.5Z" fill="#E63C39"/>
</svg>
