<svg width="24" height="24" viewBox="0 0 24 24" fill="none" xmlns="http://www.w3.org/2000/svg">
<path fill-rule="evenodd" clip-rule="evenodd" d="M11.293 19.7067L6.29301 14.7067C5.90201 14.3158 5.90201 13.6838 6.29301 13.2928C6.68401 12.9018 7.31601 12.9018 7.70701 13.2928L11 16.5858L11 4.99975C11 4.44675 11.448 3.99975 12 3.99975C12.552 3.99975 13 4.44675 13 4.99975L13 16.5858L16.293 13.2927C16.684 12.9018 17.316 12.9018 17.707 13.2927C17.902 13.4877 18 13.7438 18 13.9997C18 14.2557 17.902 14.5117 17.707 14.7067L12.707 19.7067C12.316 20.0977 11.684 20.0977 11.293 19.7067Z" fill="#0065F2"/>
</svg>
