<svg width="20" height="6" viewBox="0 0 20 6" fill="none" xmlns="http://www.w3.org/2000/svg">
<path d="M6 3C6 4.65685 4.65685 6 3 6C1.34315 6 0 4.65685 0 3C0 1.34315 1.34315 0 3 0C4.65685 0 6 1.34315 6 3Z" fill="#475466"/>
<path d="M13 3C13 4.65685 11.6569 6 10 6C8.34315 6 7 4.65685 7 3C7 1.34315 8.34315 0 10 0C11.6569 0 13 1.34315 13 3Z" fill="#475466"/>
<path d="M17 6C18.6569 6 20 4.65685 20 3C20 1.34315 18.6569 0 17 0C15.3431 0 14 1.34315 14 3C14 4.65685 15.3431 6 17 6Z" fill="#475466"/>
</svg>
