<svg width="25" height="24" viewBox="0 0 25 24" fill="none" xmlns="http://www.w3.org/2000/svg">
<path d="M9.50583 12C9.50583 13.6569 10.849 15 12.5058 15C14.1627 15 15.5058 13.6569 15.5058 12C15.5058 11.6925 15.4596 11.3959 15.3736 11.1166C15.1385 11.6375 14.6145 12 14.0058 12C13.1774 12 12.5058 11.3284 12.5058 10.5C12.5058 9.89135 12.8683 9.36736 13.3892 9.13218C13.11 9.04625 12.8133 9 12.5058 9C10.849 9 9.50583 10.3431 9.50583 12Z" fill="#475466"/>
<path fill-rule="evenodd" clip-rule="evenodd" d="M12.5058 5C18.6372 5 21.3888 9.21507 22.2407 10.9048C22.5902 11.598 22.5902 12.402 22.2407 13.0952C21.3888 14.7849 18.6372 19 12.5058 19C6.37851 19 3.62016 14.7903 2.76412 13.0993C2.41202 12.4038 2.41202 11.5962 2.76412 10.9007C3.62016 9.20969 6.37851 5 12.5058 5ZM20.4548 11.8051C19.7441 10.3954 17.5237 7 12.5058 7C7.49016 7 5.26315 10.3923 4.5485 11.804C4.48389 11.9317 4.48389 12.0683 4.5485 12.196C5.26315 13.6077 7.49016 17 12.5058 17C17.5237 17 19.7441 13.6046 20.4548 12.1949C20.5188 12.0679 20.5188 11.9321 20.4548 11.8051Z" fill="#475466"/>
</svg>
