<svg width="24" height="24" viewBox="0 0 24 24" fill="none" xmlns="http://www.w3.org/2000/svg">
<path fill-rule="evenodd" clip-rule="evenodd" d="M16.904 11.9788C16.7111 12.9492 16.2349 13.8407 15.5357 14.5404L12 18L8.46429 14.5404C7.76508 13.8407 7.28892 12.9492 7.09604 11.9788C6.90315 11.0083 7.0022 10.0024 7.38065 9.08828C7.75911 8.17414 8.39997 7.39282 9.2222 6.84311C10.0444 6.2934 11.0111 6 12 6C12.9889 6 13.9556 6.2934 14.7778 6.84311C15.6 7.39282 16.2409 8.17414 16.6193 9.08828C16.9978 10.0024 17.0968 11.0083 16.904 11.9788ZM14 11C14 12.1046 13.1046 13 12 13C10.8954 13 10 12.1046 10 11C10 9.89543 10.8954 9 12 9C13.1046 9 14 9.89543 14 11Z" fill="#475466"/>
</svg>
