<svg width="24" height="24" viewBox="0 0 24 24" fill="none" xmlns="http://www.w3.org/2000/svg">
<path d="M2.58282 2.97977C0.949504 3.20931 -0.192174 4.71434 0.0269314 6.34909L0.533468 10.1284C0.606834 10.6758 1.11006 11.06 1.65745 10.9867C2.20484 10.9133 2.58911 10.4101 2.51574 9.86269L2.00921 6.08341C1.93617 5.53849 2.31673 5.03682 2.86117 4.9603L16.7375 3.01011C17.2844 2.93324 17.7901 3.31429 17.867 3.8612L18.0465 5.13865C18.1234 5.68556 18.629 6.0666 19.176 5.98974C19.7229 5.91288 20.1039 5.40721 20.0271 4.8603L19.8475 3.58285C19.6169 1.94212 18.0999 0.79898 16.4592 1.02957L2.58282 2.97977Z" fill="white"/>
<path d="M11.9979 11.9955C11.4457 11.9955 10.9979 12.4433 10.9979 12.9955C10.9979 13.5478 11.4457 13.9955 11.9979 13.9955H15.9979C16.5502 13.9955 16.9979 13.5478 16.9979 12.9955C16.9979 12.4433 16.5502 11.9955 15.9979 11.9955H11.9979Z" fill="white"/>
<path d="M11.9979 15.9955C11.4457 15.9955 10.9979 16.4433 10.9979 16.9955C10.9979 17.5478 11.4457 17.9955 11.9979 17.9955H15.9979C16.5502 17.9955 16.9979 17.5478 16.9979 16.9955C16.9979 16.4433 16.5502 15.9955 15.9979 15.9955H11.9979Z" fill="white"/>
<path fill-rule="evenodd" clip-rule="evenodd" d="M3.99794 9.99555C3.99794 8.33869 5.34108 6.99555 6.99794 6.99555H20.9979C22.6548 6.99555 23.9979 8.33869 23.9979 9.99555V12.4955C22.6172 12.4955 21.4979 13.6148 21.4979 14.9955C21.4979 16.3763 22.6172 17.4955 23.9979 17.4955V19.9955C23.9979 21.6524 22.6548 22.9955 20.9979 22.9955H6.99794C5.34108 22.9955 3.99794 21.6524 3.99794 19.9955V17.4955C5.37865 17.4955 6.49794 16.3763 6.49794 14.9955C6.49794 13.6148 5.37865 12.4955 3.99794 12.4955V9.99555ZM21.9979 19.0278C20.5162 18.2914 19.4979 16.7624 19.4979 14.9955C19.4979 13.2287 20.5162 11.6997 21.9979 10.9633V9.99555C21.9979 9.44326 21.5502 8.99555 20.9979 8.99555H6.99794C6.44565 8.99555 5.99794 9.44326 5.99794 9.99555V10.9633C7.47966 11.6997 8.49794 13.2287 8.49794 14.9955C8.49794 16.7624 7.47966 18.2914 5.99794 19.0278V19.9955C5.99794 20.5478 6.44565 20.9955 6.99794 20.9955H20.9979C21.5502 20.9955 21.9979 20.5478 21.9979 19.9955V19.0278Z" fill="white"/>
</svg>
