<svg width="24" height="24" viewBox="0 0 24 24" fill="none" xmlns="http://www.w3.org/2000/svg">
<path d="M6 2H15L21 8V11C21 11.5523 20.5523 12 20 12C19.4477 12 19 11.5523 19 11V9H16C14.8954 9 14 8.10457 14 7V4H6C5.44771 4 5 4.44772 5 5V19C5 19.5523 5.44772 20 6 20H12C12.5523 20 13 20.4477 13 21C13 21.5523 12.5523 22 12 22H6C4.34315 22 3 20.6569 3 19V5C3 3.34315 4.34315 2 6 2Z" fill="#475466"/>
<path d="M8 8C8 7.44772 8.44772 7 9 7H10C10.5523 7 11 7.44772 11 8C11 8.55228 10.5523 9 10 9H9C8.44772 9 8 8.55228 8 8Z" fill="#475466"/>
<path d="M9 11C8.44772 11 8 11.4477 8 12C8 12.5523 8.44772 13 9 13H13C13.5523 13 14 12.5523 14 12C14 11.4477 13.5523 11 13 11H9Z" fill="#475466"/>
<path d="M9 15C8.44772 15 8 15.4477 8 16C8 16.5523 8.44772 17 9 17H12C12.5523 17 13 16.5523 13 16C13 15.4477 12.5523 15 12 15H9Z" fill="#475466"/>
<path d="M22.7031 15.7132L20.413 18.0033L22.7031 20.2932C23.0939 20.6842 23.0939 21.3222 22.7031 21.7132C22.5083 21.9082 22.249 22.0032 21.9931 22.0032C21.7373 22.0032 21.478 21.9082 21.2831 21.7132L18.9999 19.4173L16.7131 21.7132C16.5183 21.9082 16.259 22.0032 16.0031 22.0032C15.7473 22.0032 15.488 21.9082 15.2931 21.7132C14.9024 21.3222 14.9022 20.6842 15.293 20.2932L17.5868 18.0033L15.2931 15.7133C14.9024 15.3223 14.9024 14.6843 15.2931 14.2933C15.6839 13.9023 16.3224 13.9023 16.7131 14.2933L18.9999 16.5893L21.2831 14.2933C21.6739 13.9023 22.3124 13.9022 22.7031 14.2932C23.0939 14.6842 23.0939 15.3222 22.7031 15.7132Z" fill="#475466"/>
</svg>
