<svg width="1106" height="1207" viewBox="0 0 1106 1207" fill="none" xmlns="http://www.w3.org/2000/svg">
<path fill-rule="evenodd" clip-rule="evenodd" d="M322.383 908.797L288.433 1066.94H265.975L299.924 908.797H322.383Z" fill="#CCE3FF"/>
<path fill-rule="evenodd" clip-rule="evenodd" d="M868.172 908.796H286.863V884.333H868.172V908.796Z" fill="#D7EBFF"/>
<path fill-rule="evenodd" clip-rule="evenodd" d="M410.123 997.389H296.786V972.925H410.123V997.389Z" fill="#D7EBFF"/>
<path fill-rule="evenodd" clip-rule="evenodd" d="M748.063 747.8L773.54 884.333H742.795L717.318 747.8H748.063Z" fill="#CCE3FF"/>
<path fill-rule="evenodd" clip-rule="evenodd" d="M304.941 747.8L330.417 884.333H299.674L274.197 747.8H304.941Z" fill="#CCE3FF"/>
<path fill-rule="evenodd" clip-rule="evenodd" d="M423.18 908.797H286.863V884.333H423.18V908.797Z" fill="#B6D4FF"/>
<path fill-rule="evenodd" clip-rule="evenodd" d="M243.535 836.8L248.093 861.269H278.842L274.276 836.8H243.535Z" fill="#CCE3FF"/>
<path fill-rule="evenodd" clip-rule="evenodd" d="M274.276 836.8L278.842 861.269H796.232L791.666 836.8H274.276Z" fill="#D7EBFF"/>
<path fill-rule="evenodd" clip-rule="evenodd" d="M235.235 792.301L239.792 816.761H270.542L265.976 792.301H235.235Z" fill="#CCE3FF"/>
<path fill-rule="evenodd" clip-rule="evenodd" d="M265.975 792.301L270.541 816.761H787.931L783.364 792.301H265.975Z" fill="#D7EBFF"/>
<path fill-rule="evenodd" clip-rule="evenodd" d="M257.675 747.803L262.232 772.264H231.492L226.934 747.803H257.675Z" fill="#CCE3FF"/>
<path fill-rule="evenodd" clip-rule="evenodd" d="M775.056 747.803L779.623 772.264H262.232L257.675 747.803H775.056Z" fill="#D7EBFF"/>
<path fill-rule="evenodd" clip-rule="evenodd" d="M410.123 908.797L444.072 1066.94H421.613L387.664 908.797H410.123Z" fill="#CCE3FF"/>
<path fill-rule="evenodd" clip-rule="evenodd" d="M767.111 908.796L733.161 1066.94H710.704L744.652 908.796H767.111Z" fill="#CCE3FF"/>
<path fill-rule="evenodd" clip-rule="evenodd" d="M854.851 997.389H741.513V972.925H854.851V997.389Z" fill="#D7EBFF"/>
<path fill-rule="evenodd" clip-rule="evenodd" d="M854.851 908.796L888.8 1066.94H866.341L832.393 908.796H854.851Z" fill="#CCE3FF"/>
<path fill-rule="evenodd" clip-rule="evenodd" d="M205.597 852.071L190.714 1067.72H60.0208L45.14 852.071C44.6704 845.317 50.0208 839.583 56.7864 839.583H193.95C200.715 839.583 206.066 845.317 205.597 852.071Z" fill="#DCEEFF"/>
<path d="M125.369 888.217V1033.65" stroke="#B6D4FF" stroke-width="16" stroke-linecap="round"/>
<path d="M171.728 888.217L161.62 1033.65" stroke="#B6D4FF" stroke-width="16" stroke-linecap="round"/>
<path d="M79.0083 888.217L89.1171 1033.65" stroke="#B6D4FF" stroke-width="16" stroke-linecap="round"/>
<path fill-rule="evenodd" clip-rule="evenodd" d="M211.182 853.141H38.9995V843.996C38.9995 835.729 45.6987 829.027 53.9635 829.027H196.219C204.483 829.027 211.182 835.729 211.182 843.996V853.141Z" fill="#DCEEFF"/>
<path d="M45.1108 858.44H205.626" stroke="#CCE3FF" stroke-width="14"/>
<path fill-rule="evenodd" clip-rule="evenodd" d="M93.6958 832.195H100.65V816.749H93.6958V832.195Z" fill="#DCEEFF"/>
<path fill-rule="evenodd" clip-rule="evenodd" d="M147.629 830.75H154.583V815.304H147.629V830.75Z" fill="#DCEEFF"/>
<path fill-rule="evenodd" clip-rule="evenodd" d="M93.6958 819.212H154.583V810.655H93.6958V819.212Z" fill="#DCEEFF"/>
<path fill-rule="evenodd" clip-rule="evenodd" d="M143.844 516.415C143.844 569.38 121.913 617.486 72.259 617.486C22.605 617.486 0.673828 569.38 0.673828 516.415C0.673828 454.284 38.196 392.5 72.259 392.5C106.322 392.5 143.844 454.284 143.844 516.415Z" fill="#ECF6FF"/>
<path d="M72.2591 504.993V655.83" stroke="#DCEEFF" stroke-width="8" stroke-linecap="square"/>
<path d="M73.7607 573.936L93.1356 552.204" stroke="#DCEEFF" stroke-width="8" stroke-linecap="square"/>
<path d="M69.4038 544.432L50.0283 522.7" stroke="#DCEEFF" stroke-width="8" stroke-linecap="square"/>
<path fill-rule="evenodd" clip-rule="evenodd" d="M141.364 445.99C138.196 436.515 120.833 438.12 120.831 411.699C120.826 371.918 175.671 376.458 178.904 346.485C182.139 316.512 146.897 317.228 145.805 291.947C144.714 266.665 171.512 214.5 212.171 214.5C244.231 214.5 217.677 254.751 243.55 272.751C269.424 290.751 298.975 267.691 313.6 295.996C333.746 334.985 282.232 381.81 287.314 411.699C292.396 441.589 322.595 434.521 323.519 467.363C324.443 500.204 280.576 505.983 284.709 534.145C287.314 551.897 315.076 545.97 316.532 580.974C317.765 610.61 222.38 647.281 150.728 586.974C79.0754 526.665 153.456 482.154 141.364 445.99Z" fill="#CCE3FF"/>
<path d="M220.337 374.204V665.468" stroke="#ECF6FF" stroke-width="8" stroke-linecap="square"/>
<path d="M221.838 571.415L259.305 533.988" stroke="#ECF6FF" stroke-width="8" stroke-linecap="square"/>
<path d="M222.338 464.807L241.385 445.781" stroke="#ECF6FF" stroke-width="8" stroke-linecap="square"/>
<path d="M218.335 507.165L188.459 477.321" stroke="#ECF6FF" stroke-width="8" stroke-linecap="square"/>
<path d="M219.024 415.019L204.508 400.519" stroke="#ECF6FF" stroke-width="8" stroke-linecap="square"/>
<path fill-rule="evenodd" clip-rule="evenodd" d="M490.842 448.482C490.842 514.195 437.515 567.465 371.733 567.465C305.951 567.465 252.624 514.195 252.624 448.482C252.624 382.77 305.951 329.5 371.733 329.5C437.515 329.5 490.842 382.77 490.842 448.482Z" fill="#ECF6FF"/>
<path d="M371.733 414.095V657.46" stroke="#B6D4FF" stroke-width="8"/>
<path d="M371.733 526.935L398.248 500.449" stroke="#B6D4FF" stroke-width="8"/>
<path d="M372.734 447.431L386.386 433.793" stroke="#B6D4FF" stroke-width="8"/>
<path d="M371.733 487.42L346.322 462.036" stroke="#B6D4FF" stroke-width="8"/>
<path fill-rule="evenodd" clip-rule="evenodd" d="M1067.37 802.774H1083.37V90.9111H1067.37V802.774Z" fill="#D7EBFF"/>
<path fill-rule="evenodd" clip-rule="evenodd" d="M902.973 109.028L776.353 67.0542C771.064 65.3012 768.17 59.5382 769.924 54.2492L776.24 35.1952C777.994 29.9062 783.756 27.0132 789.045 28.7662L915.665 70.7402C920.954 72.4932 923.848 78.2562 922.094 83.5452L915.778 102.599C914.025 107.888 908.262 110.781 902.973 109.028Z" fill="#ECF6FF"/>
<path fill-rule="evenodd" clip-rule="evenodd" d="M1044.7 1066.7H1106.03V830.773H1044.7V1066.7Z" fill="#CCE3FF"/>
<path fill-rule="evenodd" clip-rule="evenodd" d="M1057.7 874.772H1093.03V794.047H1057.7V874.772Z" fill="#CCE3FF"/>
<path fill-rule="evenodd" clip-rule="evenodd" d="M1060.67 107.928H1090.07V73.7002H1060.67V107.928Z" fill="#CCE3FF"/>
<path d="M860.046 52.6436C860.046 52.6436 1075.37 100.253 1075.37 215.97" stroke="#DCEEFF" stroke-width="15" stroke-linejoin="bevel"/>
<path fill-rule="evenodd" clip-rule="evenodd" d="M917.111 96.1556L778.302 50.1406C765.88 46.0236 759.086 32.4896 763.203 20.0676L764.45 16.3056C768.568 3.88356 782.101 -2.91145 794.524 1.20656L933.333 47.2206C945.755 51.3386 952.549 64.8716 948.431 77.2946L947.184 81.0566C943.066 93.4786 929.533 100.274 917.111 96.1556Z" fill="#CCE3FF"/>
<path fill-rule="evenodd" clip-rule="evenodd" d="M808.82 1206.56H388C389.944 1156.61 420.611 1135.27 467.38 1134.09C498.252 1050.39 565.895 1135.78 570.764 1069.57C576.485 991.717 578.13 899.955 578.13 899.955L618.01 900.615C618.01 900.615 621.34 949.743 628.25 1049.83C633.15 1120.72 683.07 1054.98 748.64 1097.94C781.739 1119.63 780.263 1172.1 780.263 1172.1C780.263 1172.1 808.82 1173.53 808.82 1206.56Z" fill="#B5B8BC"/>
<path fill-rule="evenodd" clip-rule="evenodd" d="M532.59 1206.56H429.37C433.86 1184.41 453.03 1168.25 475.61 1166.03C479.94 1165.62 484.39 1165.71 488.89 1166.36C491.48 1166.74 494 1167.29 496.44 1168.01C503.13 1169.98 509.19 1173.16 514.37 1177.26C523.72 1184.64 530.24 1195 532.59 1206.56Z" fill="#D7DADD"/>
<path fill-rule="evenodd" clip-rule="evenodd" d="M762 1206.56H706.14C708.43 1196.37 715.72 1188.11 725.31 1184.97C727.57 1184.24 729.96 1183.78 732.45 1183.65C733.88 1183.57 735.3 1183.61 736.68 1183.76C748.85 1184.99 759.02 1194.22 762 1206.56Z" fill="#D7DADD"/>
<path fill-rule="evenodd" clip-rule="evenodd" d="M671.18 1206.56H511.56C510.9 1200.25 511.05 1193.77 512.09 1187.22C512.63 1183.81 513.4 1180.49 514.37 1177.26C525.41 1140.77 563.22 1116.87 603.46 1122.74C612.97 1124.13 621.83 1127.06 629.81 1131.24C657.48 1145.71 674.55 1175.09 671.18 1206.56Z" fill="#D7DADD"/>
<path fill-rule="evenodd" clip-rule="evenodd" d="M544.441 1061.41C543.132 1069.66 535.097 1075.33 526.495 1074.08C517.892 1072.82 511.98 1065.12 513.289 1056.87C514.598 1048.62 522.632 1042.95 531.235 1044.2C539.837 1045.46 545.75 1053.16 544.441 1061.41Z" fill="#D7DADD"/>
<path fill-rule="evenodd" clip-rule="evenodd" d="M658.832 1064.28C658.292 1067.68 654.976 1070.02 651.426 1069.5C647.875 1068.98 645.435 1065.8 645.976 1062.4C646.516 1059 649.832 1056.66 653.382 1057.17C656.932 1057.69 659.372 1060.87 658.832 1064.28Z" fill="#D7DADD"/>
<path fill-rule="evenodd" clip-rule="evenodd" d="M845.881 1167.95C844.634 1175.8 836.982 1181.2 828.789 1180.01C820.596 1178.81 814.965 1171.48 816.212 1163.62C817.459 1155.76 825.111 1150.36 833.304 1151.56C841.497 1152.75 847.128 1160.09 845.881 1167.95Z" fill="#D7DADD"/>
<path fill-rule="evenodd" clip-rule="evenodd" d="M551.989 870.415H647.271C652.794 870.415 657.271 866.121 657.271 860.825C657.271 855.529 652.794 851.236 647.271 851.236H551.989C546.466 851.236 541.989 855.529 541.989 860.825C541.989 866.121 546.466 870.415 551.989 870.415ZM573.169 910.843H626.092L646.092 870.415H553.169L573.169 910.843Z" fill="#6CA1FF"/>
<path opacity="0.402158" fill-rule="evenodd" clip-rule="evenodd" d="M625.923 910.842H573L553 870.415H645.923L625.923 910.842Z" fill="black"/>
<path d="M481.078 1108.38L460.004 1085.52L490.557 1046.26L527.238 1078.08L514.009 1106.02" stroke="#19141E" stroke-width="15"/>
<path d="M709.936 1106.49L691.045 1081.81L725.068 1045.51L758.678 1080.55L742.945 1107.16" stroke="#19141E" stroke-width="15"/>
<path d="M725.444 941.706L710.299 830.668" stroke="#19141E" stroke-width="27" stroke-linecap="round"/>
<path d="M483.56 938.323L499.526 827.401" stroke="#19141E" stroke-width="27" stroke-linecap="round"/>
<path fill-rule="evenodd" clip-rule="evenodd" d="M662.007 876.422H618.89C612.465 876.422 607.257 871.214 607.257 864.789V821.672C607.257 815.248 612.465 810.04 618.89 810.04H662.007C668.431 810.04 673.639 815.248 673.639 821.672V864.789C673.639 871.214 668.431 876.422 662.007 876.422Z" fill="#19141E"/>
<path fill-rule="evenodd" clip-rule="evenodd" d="M651.007 876.422H618.89C612.465 876.422 607.257 871.214 607.257 864.789V821.672C607.257 815.248 612.465 810.04 618.89 810.04H651.007C657.431 810.04 662.639 815.248 662.639 821.672V864.789C662.639 871.214 657.431 876.422 651.007 876.422Z" fill="#405FD3"/>
<path fill-rule="evenodd" clip-rule="evenodd" d="M501.286 862.876C500.984 862.883 500.68 862.887 500.375 862.887C480.333 862.887 464.086 846.639 464.086 826.597C464.086 806.555 480.333 790.307 500.375 790.307C504.656 790.307 508.764 791.048 512.577 792.41C530.459 760.234 564.795 738.461 604.216 738.461C641.82 738.461 674.797 758.272 693.278 788.026C696.944 786.78 700.873 786.105 704.959 786.105C725.001 786.105 741.249 802.353 741.249 822.395C741.249 841.457 726.552 857.086 707.871 858.569C700.449 909.16 656.869 948 604.216 948C553.068 948 510.482 911.348 501.286 862.876ZM438.076 963.084C436.975 948.336 448.039 935.489 462.787 934.388L499.838 931.624C514.586 930.523 527.433 941.587 528.533 956.334L534.835 1040.79C535.935 1055.54 524.872 1068.38 510.125 1069.49L473.073 1072.25C458.325 1073.35 445.478 1062.29 444.378 1047.54L438.076 963.084ZM706.634 929.809C691.846 929.73 679.793 941.654 679.715 956.443L679.264 1041.13C679.185 1055.92 691.11 1067.97 705.898 1068.05L743.052 1068.25C757.84 1068.33 769.893 1056.4 769.971 1041.61L770.422 956.926C770.501 942.138 758.576 930.086 743.788 930.006L706.634 929.809Z" fill="#6CA1FF"/>
<path fill-rule="evenodd" clip-rule="evenodd" d="M564.21 746.461H644.223V720H564.21V746.461Z" fill="#19141E"/>
<path fill-rule="evenodd" clip-rule="evenodd" d="M651.007 876.422C657.431 876.422 662.639 871.214 662.639 864.789V821.672C662.639 815.248 657.431 810.04 651.007 810.04H662.007C668.431 810.04 673.639 815.248 673.639 821.672V864.789C673.639 871.214 668.431 876.422 662.007 876.422H651.007Z" fill="#19141E"/>
<path opacity="0.401762" d="M458.486 961.056L462.972 960.702V960.702L458.486 961.056ZM453.647 956.923L453.294 952.437H453.294L453.647 956.923ZM465.138 1045.54L460.652 1045.89L465.138 1045.54ZM461.005 1050.38L460.652 1045.89L461.005 1050.38ZM456.166 1046.24L451.68 1046.6L456.166 1046.24ZM449.514 961.762L445.028 962.115V962.115L449.514 961.762ZM474.975 959.647L479.461 959.294V959.294L474.975 959.647ZM470.135 955.514L469.782 951.028L470.135 955.514ZM481.627 1044.13L477.14 1044.48L481.627 1044.13ZM477.494 1048.97L477.14 1044.48L477.494 1048.97ZM472.654 1044.83L468.168 1045.19L472.654 1044.83ZM466.002 960.353L461.516 960.707V960.707L466.002 960.353ZM462.972 960.702C462.582 955.747 458.249 952.047 453.294 952.437L454 961.409V961.409L462.972 960.702ZM469.624 1045.18L462.972 960.702L454 961.409L460.652 1045.89L469.624 1045.18ZM461.359 1054.86C466.314 1054.47 470.015 1050.14 469.624 1045.18L460.652 1045.89H460.652L461.359 1054.86ZM451.68 1046.6C452.07 1051.55 456.403 1055.25 461.359 1054.86L460.652 1045.89H460.652L451.68 1046.6ZM445.028 962.115L451.68 1046.6L460.652 1045.89L454 961.409L445.028 962.115ZM453.294 952.437C448.339 952.827 444.638 957.16 445.028 962.115L454 961.409L454 961.409L453.294 952.437ZM479.461 959.294C479.07 954.339 474.737 950.638 469.782 951.028L470.488 960V960L479.461 959.294ZM486.113 1043.77L479.461 959.294L470.488 960L477.14 1044.48L486.113 1043.77ZM477.847 1053.45C482.802 1053.06 486.503 1048.73 486.113 1043.77L477.14 1044.48H477.14L477.847 1053.45ZM468.168 1045.19C468.558 1050.14 472.892 1053.84 477.847 1053.45L477.14 1044.48H477.14L468.168 1045.19ZM461.516 960.707L468.168 1045.19L477.14 1044.48L470.488 960L461.516 960.707ZM469.782 951.028C464.827 951.418 461.126 955.751 461.516 960.707L470.488 960L470.488 960L469.782 951.028Z" fill="black"/>
<path opacity="0.397763" fill-rule="evenodd" clip-rule="evenodd" d="M651.05 876.382H618.933C612.508 876.382 607.3 871.174 607.3 864.749V821.632C607.3 815.208 612.508 810 618.933 810H651.05C657.474 810 662.682 815.208 662.682 821.632V864.749C662.682 871.174 657.474 876.382 651.05 876.382ZM624.427 839.855C629.081 839.855 632.855 836.082 632.855 831.427C632.855 826.773 629.081 823 624.427 823C619.773 823 616 826.773 616 831.427C616 836.082 619.773 839.855 624.427 839.855ZM648.377 839.855C653.031 839.855 656.805 836.082 656.805 831.427C656.805 826.773 653.031 823 648.377 823C643.723 823 639.949 826.773 639.949 831.427C639.949 836.082 643.723 839.855 648.377 839.855ZM624.427 864.213C629.081 864.213 632.855 860.44 632.855 855.785C632.855 851.131 629.081 847.358 624.427 847.358C619.773 847.358 616 851.131 616 855.785C616 860.44 619.773 864.213 624.427 864.213Z" fill="black"/>
<path opacity="0.404204" fill-rule="evenodd" clip-rule="evenodd" d="M463 826.29C463 846.332 479.247 862.58 499.289 862.58C519.331 862.58 535.579 846.332 535.579 826.29C535.579 806.248 519.331 790 499.289 790C479.247 790 463 806.248 463 826.29Z" fill="black"/>
<path opacity="0.398763" fill-rule="evenodd" clip-rule="evenodd" d="M680.451 956.634L680 1041.32C679.921 1056.11 691.846 1068.16 706.634 1068.24L743.788 1068.44C758.576 1068.52 770.629 1056.6 770.707 1041.81L771.158 957.117C771.237 942.329 759.312 930.277 744.524 930.197L707.37 930C692.582 929.921 680.529 941.845 680.451 956.634Z" fill="black"/>
<path opacity="0.397856" fill-rule="evenodd" clip-rule="evenodd" d="M693 788.421C696.665 787.176 700.594 786.5 704.681 786.5C724.723 786.5 740.971 802.748 740.971 822.79C740.971 841.852 726.273 857.481 707.593 858.964C708.327 853.958 708.707 848.836 708.707 843.626C708.707 823.367 702.957 804.451 693 788.421H693Z" fill="black"/>
<path opacity="0.598121" fill-rule="evenodd" clip-rule="evenodd" d="M624.427 864.205C629.081 864.205 632.855 860.432 632.855 855.777C632.855 851.123 629.081 847.35 624.427 847.35C619.773 847.35 616 851.123 616 855.777C616 860.432 619.773 864.205 624.427 864.205Z" fill="black"/>
<path d="M583.728 594.423C583.728 594.423 601.19 605.972 603.111 625.953" stroke="#19141E" stroke-width="5" stroke-linecap="round"/>
<path fill-rule="evenodd" clip-rule="evenodd" d="M582.076 603.077C587.896 603.077 592.614 598.358 592.614 592.538C592.614 586.718 587.896 582 582.076 582C576.256 582 571.537 586.718 571.537 592.538C571.537 598.358 576.256 603.077 582.076 603.077ZM531.875 678.45H584.753V720.326H615.112V678.45H665.211C676.692 678.45 686.086 669.056 686.086 657.575V643.502C686.086 632.021 676.692 622.627 665.211 622.627H531.875C520.394 622.627 511 632.021 511 643.502V657.575C511 669.056 520.394 678.45 531.875 678.45Z" fill="#6CA1FF"/>
<path opacity="0.399042" fill-rule="evenodd" clip-rule="evenodd" d="M584.753 720.326H615.112V678.326H584.753V720.326Z" fill="black"/>
<path opacity="0.400367" fill-rule="evenodd" clip-rule="evenodd" d="M584.753 706.742L615.112 696.742V678.158H584.753V706.742Z" fill="black"/>
<path fill-rule="evenodd" clip-rule="evenodd" d="M531.875 678.449C520.394 678.449 511 669.055 511 657.574V643.501C511 632.02 520.394 622.626 531.875 622.626C543.356 622.626 552.75 632.02 552.75 643.501V657.574C552.75 669.055 543.356 678.449 531.875 678.449Z" fill="#19141E"/>
<path fill-rule="evenodd" clip-rule="evenodd" d="M564.615 650.539C564.615 659.378 571.781 666.544 580.62 666.544C589.46 666.544 596.626 659.378 596.626 650.539C596.626 641.699 589.46 634.533 580.62 634.533C571.781 634.533 564.615 641.699 564.615 650.539Z" fill="white"/>
<path fill-rule="evenodd" clip-rule="evenodd" d="M575.341 648.29C575.341 652.351 578.633 655.643 582.694 655.643C586.755 655.643 590.047 652.351 590.047 648.29C590.047 644.229 586.755 640.937 582.694 640.937C578.633 640.937 575.341 644.229 575.341 648.29Z" fill="#19141E"/>
<path fill-rule="evenodd" clip-rule="evenodd" d="M642.665 650.539C642.665 659.378 649.831 666.544 658.671 666.544C667.511 666.544 674.677 659.378 674.677 650.539C674.677 641.699 667.511 634.533 658.671 634.533C649.831 634.533 642.665 641.699 642.665 650.539Z" fill="white"/>
<path fill-rule="evenodd" clip-rule="evenodd" d="M653.391 648.29C653.391 652.351 656.683 655.643 660.744 655.643C664.805 655.643 668.097 652.351 668.097 648.29C668.097 644.229 664.805 640.937 660.744 640.937C656.683 640.937 653.391 644.229 653.391 648.29Z" fill="#19141E"/>
<path fill-rule="evenodd" clip-rule="evenodd" d="M615.988 639.568L630.304 650.431L615.988 661.509" fill="#19141E"/>
</svg>
