<svg width="24" height="24" viewBox="0 0 24 24" fill="none" xmlns="http://www.w3.org/2000/svg">
<path fill-rule="evenodd" clip-rule="evenodd" d="M19.3878 3.73321C18.4115 2.7569 16.8286 2.7569 15.8522 3.73321L4.29291 15.2925C4.16476 15.4207 4.07384 15.5813 4.02988 15.7571L3.02988 19.7571C2.94468 20.0979 3.04453 20.4584 3.29291 20.7068C3.54129 20.9551 3.90178 21.055 4.24256 20.9698L8.24256 19.9698C8.41839 19.9258 8.57897 19.8349 8.70713 19.7068L20.2665 8.14742C21.2428 7.17111 21.2428 5.5882 20.2665 4.61189L19.3878 3.73321ZM17.2665 5.14742C17.4617 4.95216 17.7783 4.95216 17.9736 5.14742L18.8522 6.0261C19.0475 6.22136 19.0475 6.53795 18.8522 6.73321L17.5 8.08544L15.9142 6.49965L17.2665 5.14742ZM14.5 7.91386L5.90299 16.5109L5.37439 18.6253L7.48877 18.0967L16.0858 9.49965L14.5 7.91386Z" fill="#475466"/>
</svg>
