<svg width="16" height="16" viewBox="0 0 16 16" fill="none" xmlns="http://www.w3.org/2000/svg">
<path fill-rule="evenodd" clip-rule="evenodd" d="M14.3878 0.733576C13.4115 -0.242734 11.8286 -0.242735 10.8522 0.733576L1.29291 10.2929C1.16476 10.4211 1.07384 10.5816 1.02988 10.7575L0.0298787 14.7575C-0.055315 15.0983 0.0445341 15.4587 0.292914 15.7071C0.541295 15.9555 0.901782 16.0554 1.24256 15.9702L5.24256 14.9702C5.41839 14.9262 5.57897 14.8353 5.70713 14.7071L15.2665 5.14779C16.2428 4.17148 16.2428 2.58857 15.2665 1.61226L14.3878 0.733576ZM12.2665 2.14779C12.4617 1.95253 12.7783 1.95253 12.9736 2.14779L13.8522 3.02647C14.0475 3.22173 14.0475 3.53831 13.8522 3.73358L12.5 5.0858L10.9142 3.50002L12.2665 2.14779ZM9.50002 4.91423L2.90299 11.5113L2.37439 13.6256L4.48877 13.0971L11.0858 6.50002L9.50002 4.91423Z" fill="#0065F2"/>
</svg>
