<svg width="24" height="24" viewBox="0 0 24 24" fill="none" xmlns="http://www.w3.org/2000/svg">
<path d="M6 9C6 8.44772 6.44772 8 7 8H8C8.55228 8 9 8.44772 9 9C9 9.55228 8.55228 10 8 10H7C6.44772 10 6 9.55228 6 9Z" fill="white"/>
<path d="M6 13C6 12.4477 6.44772 12 7 12H8C8.55228 12 9 12.4477 9 13C9 13.5523 8.55228 14 8 14H7C6.44772 14 6 13.5523 6 13Z" fill="white"/>
<path d="M16 8C15.4477 8 15 8.44772 15 9C15 9.55228 15.4477 10 16 10H17C17.5523 10 18 9.55228 18 9C18 8.44772 17.5523 8 17 8H16Z" fill="white"/>
<path d="M16 12C15.4477 12 15 12.4477 15 13C15 13.5523 15.4477 14 16 14H17C17.5523 14 18 13.5523 18 13C18 12.4477 17.5523 12 17 12H16Z" fill="white"/>
<path fill-rule="evenodd" clip-rule="evenodd" d="M2 4C2 2.89545 2.89543 2 4 2H9C10.9 2 12 3.34998 12 3.34998C12 3.34998 13.1 2 15 2H20C21.1046 2 22 2.89545 22 4V18C22 19.1046 21.1046 20 20 20H15C14.3588 20 13.8481 20.3161 13.4571 20.7071C13.2643 20.8999 13.1174 21.0953 13.0196 21.2422C12.9712 21.3148 12.9363 21.3732 12.9151 21.4102C12.75 21.7459 12.3768 22 12 22C11.6232 22 11.25 21.7459 11.0849 21.4102C11.0637 21.3732 11.0288 21.3148 10.9804 21.2422C10.8826 21.0953 10.7357 20.8999 10.5429 20.7071C10.1519 20.3161 9.64124 20 9 20H4C2.89543 20 2 19.1046 2 18V4ZM11 18.55V5.40002C11 5 10 4 9.00037 4H4V18H9C10.2 18 11 18.55 11 18.55ZM13 18.55C13 18.55 13.8 18 15 18H20V4H14.9996C14 4 13 5 13 5.40002V18.55Z" fill="white"/>
</svg>
