<svg xmlns="http://www.w3.org/2000/svg" xmlns:xlink="http://www.w3.org/1999/xlink" width="24" height="24" viewBox="0 0 24 24">
    <defs>
        <path fill="#ffffff" id="a" d="M12 18.254L5.827 21.5l1.179-6.875L2.01 9.757l6.902-1.003L12 2.5l3.087 6.254 6.902 1.003-4.995 4.868 1.18 6.875L12 18.254zm0-2.26l3.517 1.85-.672-3.917 2.846-2.774-3.932-.571L12 7.019l-1.759 3.563-3.932.571 2.846 2.774-.672 3.916L12 15.994zM12 2.5l3.087 6.254 6.902 1.003-4.995 4.868 1.18 6.875L12 18.254V2.5z"/>
    </defs>
    <g fill="none" fill-rule="evenodd">
        <mask id="b" fill="#fff">
            <use xlink:href="#a"/>
        </mask>
        <use fill="#000" fill-rule="nonzero" xlink:href="#a"/>
        <g fill="#" mask="url(#b)">
            <path d="M0 0h24v24H0z"/>
        </g>
    </g>
</svg>
