<svg width="24" height="24" viewBox="0 0 24 24" fill="none" xmlns="http://www.w3.org/2000/svg">
<path fill-rule="evenodd" clip-rule="evenodd" d="M5 7C5 5.89543 5.89543 5 7 5H9C10.1046 5 11 5.89543 11 7V9C11 10.1046 10.1046 11 9 11H7C5.89543 11 5 10.1046 5 9V7ZM7 7H9V9H7L7 7Z" fill="white"/>
<path fill-rule="evenodd" clip-rule="evenodd" d="M5 15C5 13.8954 5.89543 13 7 13H9C10.1046 13 11 13.8954 11 15V17C11 18.1046 10.1046 19 9 19H7C5.89543 19 5 18.1046 5 17V15ZM7 15H9V17H7L7 15Z" fill="white"/>
<path fill-rule="evenodd" clip-rule="evenodd" d="M15 5C13.8954 5 13 5.89543 13 7V9C13 10.1046 13.8954 11 15 11H17C18.1046 11 19 10.1046 19 9V7C19 5.89543 18.1046 5 17 5H15ZM17 7H15V9H17V7Z" fill="white"/>
<path fill-rule="evenodd" clip-rule="evenodd" d="M13 15C13 13.8954 13.8954 13 15 13H17C18.1046 13 19 13.8954 19 15V17C19 18.1046 18.1046 19 17 19H15C13.8954 19 13 18.1046 13 17V15ZM15 15H17V17H15V15Z" fill="white"/>
</svg>
