<svg width="24" height="24" viewBox="0 0 24 24" fill="none" xmlns="http://www.w3.org/2000/svg">
<path d="M6 2H15L21 8V13C21 13.5523 20.5523 14 20 14C19.4477 14 19 13.5523 19 13V9H16C14.8954 9 14 8.10457 14 7V4H6C5.44771 4 5 4.44772 5 5V19C5 19.5523 5.44772 20 6 20H12C12.5523 20 13 20.4477 13 21C13 21.5523 12.5523 22 12 22H6C4.34315 22 3 20.6569 3 19V5C3 3.34315 4.34315 2 6 2Z" fill="#475466"/>
<path d="M8 8C8 7.44772 8.44772 7 9 7H10C10.5523 7 11 7.44772 11 8C11 8.55228 10.5523 9 10 9H9C8.44772 9 8 8.55228 8 8Z" fill="#475466"/>
<path d="M9 11C8.44772 11 8 11.4477 8 12C8 12.5523 8.44772 13 9 13H13C13.5523 13 14 12.5523 14 12C14 11.4477 13.5523 11 13 11H9Z" fill="#475466"/>
<path d="M9 15C8.44772 15 8 15.4477 8 16C8 16.5523 8.44772 17 9 17H13C13.5523 17 14 16.5523 14 16C14 15.4477 13.5523 15 13 15H9Z" fill="#475466"/>
<path d="M18.0002 19.5863L21.2933 16.2933C21.6842 15.9023 22.3162 15.9023 22.7073 16.2933C23.0982 16.6842 23.0982 17.3162 22.7073 17.7072L18.7073 21.7073C18.5123 21.9023 18.2563 22.0002 18.0002 22.0002C17.7442 22.0002 17.4883 21.9023 17.2933 21.7073L15.2933 19.7073C14.9023 19.3162 14.9023 18.6842 15.2933 18.2933C15.6842 17.9023 16.3162 17.9023 16.7072 18.2933L18.0002 19.5863Z" fill="#475466"/>
</svg>
