<svg xmlns="http://www.w3.org/2000/svg" width="24" height="24" viewBox="0 0 24 24">
    <path fill="#009940" fill-rule="evenodd" d="M22.876 9.282l-.84-.84a1.46 1.46 0 0 1-.423-1.021V6.23a3.848 3.848 0 0 0-3.845-3.843H16.58c-.385 0-.748-.15-1.021-.423l-.84-.84a3.849 3.849 0 0 0-5.438 0l-.84.84a1.435 1.435 0 0 1-1.021.423H6.232a3.848 3.848 0 0 0-3.845 3.843v1.19c0 .38-.155.752-.422 1.021l-.842.84a3.85 3.85 0 0 0 0 5.436l.842.84c.267.27.422.642.422 1.022v1.19a3.848 3.848 0 0 0 3.845 3.843H7.42c.385 0 .748.15 1.021.423l.84.84A3.83 3.83 0 0 0 12 24c.984 0 1.968-.374 2.718-1.123l.84-.84a1.435 1.435 0 0 1 1.022-.424h1.188a3.848 3.848 0 0 0 3.845-3.844V16.58c0-.38.154-.753.422-1.021l.843-.84a3.85 3.85 0 0 0-.002-5.437m-1.316 3.781l-.876.875a3.977 3.977 0 0 0-1.173 2.832v1.239c0 .829-.673 1.502-1.503 1.502H16.77a3.975 3.975 0 0 0-2.831 1.174l-.875.875a1.507 1.507 0 0 1-2.128 0l-.875-.875a3.973 3.973 0 0 0-2.831-1.174H5.992c-.83 0-1.504-.673-1.504-1.502v-1.24c0-1.07-.416-2.074-1.172-2.83l-.875-.876a1.504 1.504 0 0 1-.001-2.126l.876-.875A3.98 3.98 0 0 0 4.488 7.23V5.991c0-.829.674-1.502 1.504-1.502H7.23c1.07 0 2.075-.417 2.831-1.174l.875-.875a1.507 1.507 0 0 1 2.128 0l.875.875a3.975 3.975 0 0 0 2.831 1.174h1.238c.83 0 1.503.673 1.503 1.502v1.24a3.98 3.98 0 0 0 1.173 2.83l.876.876c.587.586.587 1.54 0 2.126m-7.267-3.77L11 12.586l-1.293-1.293a.999.999 0 1 0-1.414 1.414l2 2a.997.997 0 0 0 1.414 0l4-4a.999.999 0 1 0-1.414-1.414"/>
</svg>
