<svg xmlns="http://www.w3.org/2000/svg" width="22" height="24" viewBox="0 0 22 24">
    <path fill="#007FFF" fill-rule="evenodd" d="M9.766 19.15C4.272 18.617 0 14.546 0 9.606 0 4.3 4.926 0 11 0s11 4.3 11 9.606c0 3.324-2.217 6.249-5 7.975-.04.024-.024 2.374 0 5.208.004.48-.182.915-.628 1.109a1.24 1.24 0 0 1-1.325-.218c-3.294-2.998-5.054-4.507-5.281-4.53zM9.77 17c.674.066 2.417 1.4 5.23 4 .001-1.137-.134-2.734-.136-2.798-.022-.84.203-1.632 1.21-2.262C18.488 14.427 20 12.043 20 9.635 20 5.49 16.034 2 11 2S2 5.489 2 9.635C2 13.46 5.203 16.551 9.77 17zM8 12a2 2 0 1 1 0-4 2 2 0 0 1 0 4zm6 0a2 2 0 1 1 0-4 2 2 0 0 1 0 4z"/>
</svg>
