<?xml version="1.0" encoding="UTF-8"?>
<svg xmlns="http://www.w3.org/2000/svg" xmlns:xlink="http://www.w3.org/1999/xlink" width="24pt" height="24pt" viewBox="0 0 24 24" version="1.1">
<defs>
<filter id="alpha" filterUnits="objectBoundingBox" x="0%" y="0%" width="100%" height="100%">
  <feColorMatrix type="matrix" in="SourceGraphic" values="0 0 0 0 1 0 0 0 0 1 0 0 0 0 1 0 0 0 1 0"/>
</filter>
<mask id="mask0">
  <g filter="url(#alpha)">
<rect x="0" y="0" width="24" height="24" style="fill:rgb(0%,0%,0%);fill-opacity:0.301961;stroke:none;"/>
  </g>
</mask>
<clipPath id="clip1">
  <rect width="24" height="24"/>
</clipPath>
<g id="surface47042" clip-path="url(#clip1)">
<path style=" stroke:none;fill-rule:nonzero;fill:rgb(100%,0%,0%);fill-opacity:1;" d="M 6 4 L 18 4 L 18 21 L 6 21 Z M 6 4 "/>
</g>
</defs>
<g id="surface47037">
<use xlink:href="#surface47042" mask="url(#mask0)"/>
<path style=" stroke:none;fill-rule:nonzero;fill:rgb(100%,0%,0%);fill-opacity:1;" d="M 11 18 L 9 18 L 9 7 L 11 7 Z M 15 18 L 13 18 L 13 7 L 15 7 Z M 4 3 L 20 3 L 20 5 L 4 5 Z M 4 3 "/>
<path style=" stroke:none;fill-rule:nonzero;fill:rgb(100%,0%,0%);fill-opacity:1;" d="M 17 5 L 14 2 L 10 2 L 7 5 Z M 17 5 "/>
<path style=" stroke:none;fill-rule:nonzero;fill:rgb(100%,0%,0%);fill-opacity:1;" d="M 17 22 L 7 22 C 5.898438 22 5 21.101562 5 20 L 5 3 L 19 3 L 19 20 C 19 21.101562 18.101562 22 17 22 Z M 7 5 L 7 20 L 17 20 L 17 5 Z M 7 5 "/>
</g>
</svg>
