<svg width="40" height="40" viewBox="0 0 40 40" fill="none" xmlns="http://www.w3.org/2000/svg">
<circle cx="20" cy="20" r="20" fill="white"/>
<path fill-rule="evenodd" clip-rule="evenodd" d="M21.4143 20.0002L27.7072 13.7072C28.0982 13.3162 28.0982 12.6842 27.7072 12.2932C27.3162 11.9022 26.6842 11.9022 26.2933 12.2932L20.0002 18.5862L13.7072 12.2932C13.3162 11.9022 12.6842 11.9022 12.2932 12.2932C11.9022 12.6842 11.9022 13.3162 12.2932 13.7072L18.5862 20.0002L12.2932 26.2933C11.9022 26.6842 11.9022 27.3162 12.2932 27.7072C12.4882 27.9022 12.7442 28.0002 13.0002 28.0002C13.2563 28.0002 13.5122 27.9022 13.7072 27.7072L20.0002 21.4143L26.2933 27.7072C26.4882 27.9022 26.7443 28.0002 27.0002 28.0002C27.2562 28.0002 27.5122 27.9022 27.7072 27.7072C28.0982 27.3162 28.0982 26.6842 27.7072 26.2933L21.4143 20.0002Z" fill="#2E3D4D"/>
</svg>
