<svg width="24" height="24" viewBox="0 0 24 24" fill="none" xmlns="http://www.w3.org/2000/svg">
<path fill-rule="evenodd" clip-rule="evenodd" d="M4.39058 21.9544C4.34912 21.9826 4.30014 21.9977 4.25 21.9977C4.11193 21.9977 4 21.8857 4 21.7477V3C4 2.44772 4.44772 2 5 2H19C19.5523 2 20 2.44772 20 3V21.7477C20 21.7978 19.9849 21.8468 19.9567 21.8883C19.8791 22.0024 19.7236 22.032 19.6094 21.9544L16 19.5L12.6185 21.7994C12.2452 22.0532 11.7548 22.0532 11.3815 21.7994L8 19.5L4.39058 21.9544ZM6 18.5662L7.73951 17.5104C7.89949 17.4133 8.10029 17.4137 8.25991 17.5114L12 19.8L15.7401 17.5114C15.8997 17.4137 16.1005 17.4133 16.2605 17.5104L18 18.5662V4H6V18.5662ZM9 6H15C15.5523 6 16 6.44772 16 7C16 7.55228 15.5523 8 15 8H9C8.44772 8 8 7.55228 8 7C8 6.44772 8.44772 6 9 6ZM9 10H15C15.5523 10 16 10.4477 16 11C16 11.5523 15.5523 12 15 12H9C8.44772 12 8 11.5523 8 11C8 10.4477 8.44772 10 9 10ZM9 14H11C11.5523 14 12 14.4477 12 15C12 15.5523 11.5523 16 11 16H9C8.44772 16 8 15.5523 8 15C8 14.4477 8.44772 14 9 14Z" fill="#ffffff"/>
</svg>
