<svg width="16" height="16" viewBox="0 0 16 16" fill="none" xmlns="http://www.w3.org/2000/svg">
<circle cx="8" cy="8" r="7" stroke="#FF3D33" stroke-width="2"/>
<path fill-rule="evenodd" clip-rule="evenodd" d="M10.7038 5.29002C10.3132 4.89902 9.67592 4.89901 9.28536 5.29001L7.99695 6.58602L6.70814 5.29001C6.31757 4.89901 5.68028 4.89902 5.28971 5.29002C4.89915 5.68102 4.89898 6.31901 5.28955 6.71001L6.58452 8.00002L5.28959 9.29001C4.89903 9.68101 4.89915 10.319 5.28971 10.71C5.4845 10.905 5.74321 11 5.99892 11C6.25464 11 6.51335 10.905 6.70814 10.71L7.99695 9.41402L9.28536 10.71C9.48014 10.905 9.73885 11 9.99457 11C10.2503 11 10.509 10.905 10.7038 10.71C11.0943 10.319 11.0943 9.68102 10.7038 9.29002L9.40938 8.00002L10.7038 6.71002C11.0943 6.31902 11.0943 5.68102 10.7038 5.29002Z" fill="#FF3D33"/>
</svg>
