<svg width="12" height="12" viewBox="0 0 12 12" fill="none" xmlns="http://www.w3.org/2000/svg">
<circle cx="6" cy="6" r="6" fill="url(#paint0_linear)"/>
<path d="M6 0C6.78793 -9.39599e-09 7.56815 0.155195 8.2961 0.456723C9.02405 0.758251 9.68549 1.20021 10.2426 1.75736C10.7998 2.31451 11.2417 2.97595 11.5433 3.7039C11.8448 4.43185 12 5.21207 12 6C12 6.78793 11.8448 7.56815 11.5433 8.2961C11.2417 9.02405 10.7998 9.68549 10.2426 10.2426C9.68549 10.7998 9.02405 11.2417 8.2961 11.5433C7.56815 11.8448 6.78793 12 6 12L6 6V0Z" fill="#F2F4F5"/>
<defs>
<linearGradient id="paint0_linear" x1="3.0268e-09" y1="6" x2="12" y2="6" gradientUnits="userSpaceOnUse">
<stop stop-color="#FFD500"/>
<stop offset="1" stop-color="#FFAA00"/>
</linearGradient>
</defs>
</svg>
