<svg width="17" height="12" viewBox="0 0 17 12" fill="none" xmlns="http://www.w3.org/2000/svg">
<path fill-rule="evenodd" clip-rule="evenodd" d="M16.2068 5.29301L11.2067 0.293006C10.8158 -0.0979941 10.1838 -0.0979941 9.79275 0.293006C9.40175 0.684006 9.40175 1.31601 9.79275 1.70701L13.0858 5.00001H1.49975C0.946751 5.00001 0.49975 5.44801 0.49975 6.00001C0.49975 6.55201 0.946751 7.00001 1.49975 7.00001H13.0858L9.79275 10.293C9.40175 10.684 9.40175 11.316 9.79275 11.707C9.98775 11.902 10.2438 12 10.4998 12C10.7557 12 11.0118 11.902 11.2067 11.707L16.2068 6.70701C16.5977 6.31601 16.5977 5.68401 16.2068 5.29301Z" fill="#475466"/>
</svg>
