<svg width="24" height="24" viewBox="0 0 24 24" fill="none" xmlns="http://www.w3.org/2000/svg">
<path d="M8 15V13H6V15H8Z" fill="white"/>
<path d="M13 13H11V15H13V13Z" fill="white"/>
<path d="M16 15V13H18V15H16Z" fill="white"/>
<path fill-rule="evenodd" clip-rule="evenodd" d="M9 1H7V3H5C3.34315 3 2 4.34315 2 6V18C2 19.6569 3.34315 21 5 21H19C20.6569 21 22 19.6569 22 18V6C22 4.34315 20.6569 3 19 3H17V1H15V3H9V1ZM15 7V5H9V7H7V5H5C4.44772 5 4 5.44772 4 6V9H20V6C20 5.44772 19.5523 5 19 5H17V7H15ZM4 18V11H20V18C20 18.5523 19.5523 19 19 19H5C4.44772 19 4 18.5523 4 18Z" fill="white"/>
</svg>
