<svg width="16" height="16" viewBox="0 0 16 16" fill="none" xmlns="http://www.w3.org/2000/svg">
<path fill-rule="evenodd" clip-rule="evenodd" d="M8 16C12.4183 16 16 12.4183 16 8C16 3.58172 12.4183 0 8 0C3.58172 0 0 3.58172 0 8C0 12.4183 3.58172 16 8 16ZM5.29325 10.7073C5.48825 10.9023 5.74425 11.0002 6.00025 11.0002C6.25625 11.0002 6.51225 10.9023 6.70725 10.7073L8.00025 9.41425L9.29325 10.7073C9.48825 10.9023 9.74425 11.0002 10.0002 11.0002C10.2562 11.0002 10.5122 10.9023 10.7073 10.7073C11.0983 10.3162 11.0983 9.68425 10.7073 9.29325L9.41425 8.00025L10.7073 6.70725C11.0983 6.31625 11.0983 5.68425 10.7073 5.29325C10.3162 4.90225 9.68425 4.90225 9.29325 5.29325L8.00025 6.58625L6.70725 5.29325C6.31625 4.90225 5.68425 4.90225 5.29325 5.29325C4.90225 5.68425 4.90225 6.31625 5.29325 6.70725L6.58625 8.00025L5.29325 9.29325C4.90225 9.68425 4.90225 10.3162 5.29325 10.7073Z" fill="#E3E4E6"/>
</svg>
