<svg width="20" height="16" viewBox="0 0 20 16" fill="none" xmlns="http://www.w3.org/2000/svg">
<path fill-rule="evenodd" clip-rule="evenodd" d="M3.70711 0.292893C3.31658 -0.0976311 2.68342 -0.0976311 2.29289 0.292893C1.90237 0.683417 1.90237 1.31658 2.29289 1.70711L3.57657 2.99078C1.75092 4.31946 0.725495 5.98569 0.262136 6.90477C-0.0873785 7.59803 -0.0873787 8.40197 0.262136 9.09523C1.11401 10.7849 3.86565 15 9.99698 15C11.8316 15 13.3642 14.6226 14.6342 14.0484L16.2929 15.7071C16.6834 16.0976 17.3166 16.0976 17.7071 15.7071C18.0976 15.3166 18.0976 14.6834 17.7071 14.2929L16.4221 13.0079L16.4231 13.0073L14.9856 11.5698L14.9846 11.5704L12.7056 9.29137L12.7061 9.29031L11.4135 7.99772L11.4118 7.99762L9.99936 6.58514L9.99926 6.58348L8.70667 5.29089L8.70561 5.29139L6.90672 3.4925L6.90789 3.4921L5.36547 1.94968L5.36438 1.95017L3.70711 0.292893ZM5.01404 4.42826C3.36368 5.52872 2.4565 6.99489 2.04801 7.80513C1.984 7.9321 1.984 8.0679 2.04801 8.19487C2.75874 9.60461 4.97912 13 9.99698 13C11.1776 13 12.2037 12.812 13.092 12.5062L11.2924 10.7067C10.9003 10.8947 10.4609 11 9.99698 11C8.34013 11 6.99698 9.65685 6.99698 8C6.99698 7.53605 7.1023 7.0967 7.29033 6.70454L5.01404 4.42826Z" fill="#B1B1B3"/>
<path d="M17.9543 8.19598C17.6941 8.70999 17.2334 9.48657 16.5106 10.2664L17.9238 11.6796C18.841 10.7019 19.4209 9.72704 19.7387 9.09929C20.0908 8.40376 20.0908 7.59624 19.7387 6.90071C18.8826 5.20969 16.1243 1 9.99698 1C9.09195 1 8.26056 1.09184 7.49805 1.25383L9.26876 3.02454C9.50468 3.0084 9.74737 3 9.99698 3C15.0126 3 17.2397 6.39231 17.9543 7.80402C18.0189 7.93166 18.0189 8.06834 17.9543 8.19598Z" fill="#B1B1B3"/>
</svg>
