<svg width="20" height="14" viewBox="0 0 20 14" fill="none" xmlns="http://www.w3.org/2000/svg">
<path d="M7.00583 7C7.00583 8.65685 8.34897 10 10.0058 10C11.6627 10 13.0058 8.65685 13.0058 7C13.0058 6.69253 12.9596 6.39587 12.8736 6.11659C12.6385 6.63749 12.1145 7 11.5058 7C10.6774 7 10.0058 6.32843 10.0058 5.5C10.0058 4.89135 10.3683 4.36736 10.8892 4.13218C10.61 4.04625 10.3133 4 10.0058 4C8.34897 4 7.00583 5.34315 7.00583 7Z" fill="#475466"/>
<path fill-rule="evenodd" clip-rule="evenodd" d="M10.0058 0C16.1372 0 18.8888 4.21507 19.7407 5.90477C20.0902 6.59803 20.0902 7.40197 19.7407 8.09523C18.8888 9.78493 16.1372 14 10.0058 14C3.87851 14 1.12016 9.79031 0.264118 8.09929C-0.0879841 7.40376 -0.0879841 6.59624 0.264118 5.90071C1.12016 4.20969 3.87851 0 10.0058 0ZM17.9548 6.80513C17.2441 5.39539 15.0237 2 10.0058 2C4.99016 2 2.76315 5.39231 2.0485 6.80402C1.98389 6.93166 1.98389 7.06834 2.0485 7.19598C2.76315 8.60769 4.99016 12 10.0058 12C15.0237 12 17.2441 8.60461 17.9548 7.19487C18.0188 7.0679 18.0188 6.9321 17.9548 6.80513Z" fill="#475466"/>
</svg>
