<svg width="14" height="14" viewBox="0 0 14 14" fill="none" xmlns="http://www.w3.org/2000/svg">
<path fill-rule="evenodd" clip-rule="evenodd" d="M0 2C0 0.89543 0.895431 0 2 0H4C5.10457 0 6 0.895431 6 2V4C6 5.10457 5.10457 6 4 6H2C0.89543 6 0 5.10457 0 4V2ZM2 2H4V4H2L2 2Z" fill="#475466"/>
<path fill-rule="evenodd" clip-rule="evenodd" d="M0 10C0 8.89543 0.895431 8 2 8H4C5.10457 8 6 8.89543 6 10V12C6 13.1046 5.10457 14 4 14H2C0.89543 14 0 13.1046 0 12V10ZM2 10H4V12H2L2 10Z" fill="#475466"/>
<path fill-rule="evenodd" clip-rule="evenodd" d="M10 0C8.89543 0 8 0.89543 8 2V4C8 5.10457 8.89543 6 10 6H12C13.1046 6 14 5.10457 14 4V2C14 0.895431 13.1046 0 12 0H10ZM12 2H10V4H12V2Z" fill="#475466"/>
<path fill-rule="evenodd" clip-rule="evenodd" d="M8 10C8 8.89543 8.89543 8 10 8H12C13.1046 8 14 8.89543 14 10V12C14 13.1046 13.1046 14 12 14H10C8.89543 14 8 13.1046 8 12V10ZM10 10H12V12H10V10Z" fill="#475466"/>
</svg>
