<svg width="24" height="24" viewBox="0 0 24 24" fill="none" xmlns="http://www.w3.org/2000/svg">
<path fill-rule="evenodd" clip-rule="evenodd" d="M8 13C6.34315 13 5 14.3431 5 16C5 17.6569 6.34315 19 8 19C9.65685 19 11 17.6569 11 16C11 14.3431 9.65685 13 8 13ZM7 16C7 15.4477 7.44772 15 8 15C8.55228 15 9 15.4477 9 16C9 16.5523 8.55228 17 8 17C7.44772 17 7 16.5523 7 16Z" fill="black"/>
<path fill-rule="evenodd" clip-rule="evenodd" d="M9.43743 9.14836L17.1464 1.43934C17.4277 1.15803 17.8093 1 18.2071 1H21.5C22.3284 1 23 1.67157 23 2.5V5.5C23 6.32843 22.3284 7 21.5 7H20V8.5C20 9.32843 19.3284 10 18.5 10H17V11.7929C17 12.1907 16.842 12.5722 16.5607 12.8536L14.8516 14.5626C15.3182 16.7969 14.6843 19.2152 12.9497 20.9497C10.2161 23.6834 5.78392 23.6834 3.05025 20.9497C0.316582 18.2161 0.316582 13.7839 3.05025 11.0503C4.78476 9.31574 7.20306 8.68178 9.43743 9.14836ZM21 3H18.4142L10.4789 10.9332C10.1883 11.2238 9.75166 11.2975 9.35604 11.1865C7.67222 10.7138 5.78916 11.1398 4.46447 12.4645C2.51184 14.4171 2.51184 17.5829 4.46447 19.5355C6.41709 21.4882 9.58291 21.4882 11.5355 19.5355C12.8603 18.2108 13.2863 16.3276 12.8135 14.6437C12.7024 14.2482 12.7761 13.8117 13.0664 13.5211L15 11.5858V9.5C15 8.67157 15.6716 8 16.5 8H18V6.5C18 5.67157 18.6716 5 19.5 5H21V3Z" fill="black"/>
</svg>
