<svg width="24" height="24" viewBox="0 0 24 24" fill="none" xmlns="http://www.w3.org/2000/svg">
<path fill-rule="evenodd" clip-rule="evenodd" d="M4.29325 11.2933L9.29325 6.29325C9.68425 5.90225 10.3162 5.90225 10.7072 6.29325C11.0982 6.68425 11.0982 7.31625 10.7072 7.70725L7.41425 11.0002H19.0002C19.5532 11.0002 20.0002 11.4482 20.0002 12.0002C20.0002 12.5522 19.5532 13.0002 19.0002 13.0002H7.41425L10.7072 16.2933C11.0982 16.6842 11.0982 17.3162 10.7072 17.7072C10.5122 17.9022 10.2562 18.0002 10.0002 18.0002C9.74425 18.0002 9.48825 17.9022 9.29325 17.7072L4.29325 12.7073C3.90225 12.3163 3.90225 11.6842 4.29325 11.2933Z" fill="#7A8A99"/>
</svg>
