<svg width="24" height="24" viewBox="0 0 24 24" fill="none" xmlns="http://www.w3.org/2000/svg">
<path fill-rule="evenodd" clip-rule="evenodd" d="M7 2H9V4H15V2H17V4H20C21.1046 4 22 4.89543 22 6V20C22 21.1046 21.1046 22 20 22H4C2.89543 22 2 21.1046 2 20V6C2 4.89543 2.89543 4 4 4H7V2ZM15 6V8H17V6H20V10H4V6H7V8H9V6H15ZM4 12V20H20V12H4Z" fill="#475466"/>
<path d="M8 14V16H6V14H8Z" fill="#475466"/>
<path d="M13 14H11V16H13V14Z" fill="#475466"/>
<path d="M16 16V14H18V16H16Z" fill="#475466"/>
<path d="M16 14H19H22V22H16V14Z" fill="#EDEEF0"/>
<path fill-rule="evenodd" clip-rule="evenodd" d="M19.7071 16.2929C19.3166 15.9024 18.6834 15.9024 18.2929 16.2929C17.9024 16.6834 17.9024 17.3166 18.2929 17.7071L19.5858 19L18.2929 20.2929C17.9024 20.6834 17.9024 21.3166 18.2929 21.7071C18.6834 22.0976 19.3166 22.0976 19.7071 21.7071L21 20.4142L22.2929 21.7071C22.6834 22.0976 23.3166 22.0976 23.7071 21.7071C24.0976 21.3166 24.0976 20.6834 23.7071 20.2929L22.4142 19L23.7071 17.7071C24.0976 17.3166 24.0976 16.6834 23.7071 16.2929C23.3166 15.9024 22.6834 15.9024 22.2929 16.2929L21 17.5858L19.7071 16.2929Z" fill="#475466"/>
</svg>
