<svg width="16" height="14" viewBox="0 0 16 14" fill="none" xmlns="http://www.w3.org/2000/svg">
<path fill-rule="evenodd" clip-rule="evenodd" d="M2 0C0.895447 0 0 0.895416 0 2V4C0 5.10458 0.895447 6 2 6H4C5.10455 6 6 5.10458 6 4V2C6 0.895416 5.10455 0 4 0H2ZM4 2H2V4H4V2Z" fill="#475466"/>
<path d="M15 0H9C8.44769 0 8 0.447723 8 1C8 1.55228 8.44769 2 9 2H15C15.5523 2 16 1.55228 16 1C16 0.447723 15.5523 0 15 0Z" fill="#475466"/>
<path d="M11 4H9C8.44769 4 8 4.44772 8 5C8 5.55228 8.44769 6 9 6H11C11.5523 6 12 5.55228 12 5C12 4.44772 11.5523 4 11 4Z" fill="#475466"/>
<path fill-rule="evenodd" clip-rule="evenodd" d="M2 8C0.895431 8 0 8.89543 0 10V12C0 13.1046 0.89543 14 2 14H4C5.10457 14 6 13.1046 6 12V10C6 8.89543 5.10457 8 4 8H2ZM4 10H2L2 12H4V10Z" fill="#475466"/>
<path d="M16 9C16 8.44771 15.5523 8 15 8H9C8.44771 8 8 8.44771 8 9C8 9.55228 8.44771 10 9 10H15C15.5523 10 16 9.55228 16 9Z" fill="#475466"/>
<path d="M11 12H9C8.44771 12 8 12.4477 8 13C8 13.5523 8.44771 14 9 14H11C11.5523 14 12 13.5523 12 13C12 12.4477 11.5523 12 11 12Z" fill="#475466"/>
</svg>
