<svg width="10" height="48" viewBox="0 0 10 48" fill="none" xmlns="http://www.w3.org/2000/svg">
<g clip-path="url(#clip0)">
<path fill-rule="evenodd" clip-rule="evenodd" d="M8.53571 14.5404C9.23492 13.8407 9.71108 12.9492 9.90396 11.9788C10.0968 11.0083 9.9978 10.0024 9.61935 9.08828C9.24089 8.17414 8.60003 7.39282 7.7778 6.84311C6.95556 6.2934 5.98888 6 5 6C4.01112 6 3.04444 6.2934 2.2222 6.84311C1.39997 7.39282 0.759106 8.17414 0.380653 9.08828C0.00220016 10.0024 -0.0968463 11.0083 0.0960384 11.9788C0.288923 12.9492 0.765076 13.8407 1.46429 14.5404L5 18L8.53571 14.5404ZM5 13C6.10457 13 7 12.1046 7 11C7 9.89543 6.10457 9 5 9C3.89543 9 3 9.89543 3 11C3 12.1046 3.89543 13 5 13ZM6 21C6 21.5523 5.55228 22 5 22C4.44772 22 4 21.5523 4 21C4 20.4477 4.44772 20 5 20C5.55228 20 6 20.4477 6 21ZM6 25C6 25.5523 5.55228 26 5 26C4.44772 26 4 25.5523 4 25C4 24.4477 4.44772 24 5 24C5.55228 24 6 24.4477 6 25ZM6 29C6 29.5523 5.55228 30 5 30C4.44772 30 4 29.5523 4 29C4 28.4477 4.44772 28 5 28C5.55228 28 6 28.4477 6 29ZM6 33C6 33.5523 5.55228 34 5 34C4.44772 34 4 33.5523 4 33C4 32.4477 4.44772 32 5 32C5.55228 32 6 32.4477 6 33ZM5 39C3.89543 39 3 39.8954 3 41C3 42.1046 3.89543 43 5 43C6.10457 43 7 42.1046 7 41C7 39.8954 6.10457 39 5 39ZM6 37C6 37.5523 5.55228 38 5 38C4.44772 38 4 37.5523 4 37C4 36.4477 4.44772 36 5 36C5.55228 36 6 36.4477 6 37Z" fill="#FFBF00"/>
</g>
<defs>
<clipPath id="clip0">
<rect width="10" height="48" fill="white"/>
</clipPath>
</defs>
</svg>
