<svg width="12" height="18" viewBox="0 0 12 18" fill="none" xmlns="http://www.w3.org/2000/svg">
<path d="M10 9H8C7.73478 9 7.48043 8.89464 7.29289 8.70711C7.10536 8.51957 7 8.26522 7 8C7 7.73478 7.10536 7.48043 7.29289 7.29289C7.48043 7.10536 7.73478 7 8 7H10V2.001C9.53439 2.62216 8.93051 3.12635 8.23622 3.47361C7.54192 3.82087 6.7763 4.00167 6 4.00167C5.2237 4.00167 4.45808 3.82087 3.76378 3.47361C3.06949 3.12635 2.46561 2.62216 2 2.001L2 7L4 7C4.26522 7 4.51957 7.10536 4.70711 7.29289C4.89464 7.48043 5 7.73478 5 8C5 8.26522 4.89464 8.51957 4.70711 8.70711C4.51957 8.89464 4.26522 9 4 9H2L2 15.999C2.46561 15.3778 3.06949 14.8737 3.76378 14.5264C4.45808 14.1791 5.2237 13.9983 6 13.9983C6.7763 13.9983 7.54192 14.1791 8.23622 14.5264C8.93051 14.8737 9.53439 15.3778 10 15.999V9ZM0 18L0 0L3.17 0C3.3766 0.585533 3.75974 1.09257 4.2666 1.45121C4.77346 1.80985 5.37909 2.00245 6 2.00245C6.62091 2.00245 7.22654 1.80985 7.7334 1.45121C8.24026 1.09257 8.6234 0.585533 8.83 0L12 0L12 18H8.83C8.6234 17.4145 8.24026 16.9074 7.7334 16.5488C7.22654 16.1901 6.62091 15.9975 6 15.9975C5.37909 15.9975 4.77346 16.1901 4.2666 16.5488C3.75974 16.9074 3.3766 17.4145 3.17 18H0Z" fill="#007FFF"/>
</svg>
