<svg width="20" height="20" viewBox="0 0 20 20" fill="none" xmlns="http://www.w3.org/2000/svg">
<rect x="1" y="1" width="18" height="18" rx="9" stroke="#0065F2" stroke-width="2"/>
<path d="M14.2514 10.2726C14.2514 7.24876 12.4418 5.41602 9.99502 5.41602C7.53905 5.41602 5.73401 7.24876 5.73401 10.2726C5.73401 13.2917 7.53905 15.1291 9.99502 15.1291C10.6044 15.1291 11.1722 15.0183 11.68 14.8013L12.4879 15.8493H13.9467L12.6726 14.1873C13.6513 13.361 14.2514 12.013 14.2514 10.2726ZM9.5149 11.9345L10.8583 13.698C10.5905 13.7857 10.2997 13.8272 9.99502 13.8272C8.3654 13.8272 7.15127 12.5762 7.15127 10.2726C7.15127 7.96893 8.3654 6.71786 9.99502 6.71786C11.62 6.71786 12.8388 7.96893 12.8388 10.2726C12.8388 11.5652 12.4556 12.53 11.8278 13.1209L10.9183 11.9345H9.5149Z" fill="#0065F2"/>
</svg>
