<svg width="16" height="16" viewBox="0 0 16 16" fill="none" xmlns="http://www.w3.org/2000/svg">
<path fill-rule="evenodd" clip-rule="evenodd" d="M14.3878 0.73321C13.4115 -0.243101 11.8286 -0.243102 10.8522 0.733209L1.29291 10.2925C1.16476 10.4207 1.07384 10.5813 1.02988 10.7571L0.0298787 14.7571C-0.055315 15.0979 0.0445341 15.4584 0.292914 15.7068C0.541295 15.9551 0.901782 16.055 1.24256 15.9698L5.24256 14.9698C5.41839 14.9258 5.57897 14.8349 5.70713 14.7068L15.2665 5.14742C16.2428 4.17111 16.2428 2.5882 15.2665 1.61189L14.3878 0.73321ZM12.2665 2.14742C12.4617 1.95216 12.7783 1.95216 12.9736 2.14742L13.8522 3.0261C14.0475 3.22137 14.0475 3.53795 13.8522 3.73321L12.5 5.08544L10.9142 3.49965L12.2665 2.14742ZM9.50002 4.91386L2.90299 11.5109L2.37439 13.6253L4.48877 13.0967L11.0858 6.49965L9.50002 4.91386Z" fill="#0065F2"/>
</svg>
