<svg width="20" height="20" viewBox="0 0 20 20" fill="none" xmlns="http://www.w3.org/2000/svg">
<path fill-rule="evenodd" clip-rule="evenodd" d="M10 20C4.477 20 0 15.523 0 10C0 4.477 4.477 0 10 0C15.523 0 20 4.477 20 10C20 15.523 15.523 20 10 20ZM10 18C14.4183 18 18 14.4183 18 10C18 5.58172 14.4183 2 10 2C5.58172 2 2 5.58172 2 10C2 14.4183 5.58172 18 10 18ZM16 10C16 9.44771 15.5523 9 15 9H5C4.44772 9 4 9.44771 4 10C4 10.5523 4.44772 11 5 11H15C15.5523 11 16 10.5523 16 10Z" fill="#FF3D33"/>
</svg>
