<svg width="24" height="24" viewBox="0 0 24 24" fill="none" xmlns="http://www.w3.org/2000/svg">
<path fill-rule="evenodd" clip-rule="evenodd" d="M19.7068 11.2933L14.7067 6.29325C14.3158 5.90225 13.6838 5.90225 13.2928 6.29325C12.9018 6.68425 12.9018 7.31625 13.2928 7.70725L16.5858 11.0002H4.99975C4.44675 11.0002 3.99975 11.4482 3.99975 12.0002C3.99975 12.5522 4.44675 13.0002 4.99975 13.0002H16.5858L13.2928 16.2933C12.9018 16.6842 12.9018 17.3162 13.2928 17.7072C13.4878 17.9022 13.7438 18.0002 13.9998 18.0002C14.2557 18.0002 14.5118 17.9022 14.7067 17.7072L19.7068 12.7073C20.0977 12.3163 20.0977 11.6842 19.7068 11.2933Z" fill="#7A8A99"/>
</svg>
