<svg width="10" height="16" viewBox="0 0 10 16" fill="none" xmlns="http://www.w3.org/2000/svg">
<path fill-rule="evenodd" clip-rule="evenodd" d="M0.292886 5.70712C0.68341 6.09765 1.31657 6.09765 1.7071 5.70712L4.99999 2.41423L8.29289 5.70712C8.68341 6.09765 9.31658 6.09765 9.7071 5.70712C10.0976 5.3166 10.0976 4.68343 9.7071 4.29291L5.7071 0.292909C5.31658 -0.0976162 4.68341 -0.0976162 4.29289 0.292909L0.292886 4.29291C-0.0976387 4.68343 -0.0976387 5.3166 0.292886 5.70712ZM0.292886 10.2929C0.68341 9.90238 1.31657 9.90238 1.7071 10.2929L4.99999 13.5858L8.29289 10.2929C8.68341 9.90238 9.31658 9.90238 9.7071 10.2929C10.0976 10.6834 10.0976 11.3166 9.7071 11.7071L5.7071 15.7071C5.31658 16.0976 4.68341 16.0976 4.29289 15.7071L0.292886 11.7071C-0.0976387 11.3166 -0.0976387 10.6834 0.292886 10.2929Z" fill="#B1B1B3"/>
</svg>
