<?xml version="1.0" standalone="no"?>
<!DOCTYPE svg PUBLIC "-//W3C//DTD SVG 20010904//EN"
 "http://www.w3.org/TR/2001/REC-SVG-20010904/DTD/svg10.dtd">
<svg version="1.0" xmlns="http://www.w3.org/2000/svg"
 width="96.000000pt" height="96.000000pt" viewBox="0 0 96.000000 96.000000"
 preserveAspectRatio="xMidYMid meet">
<metadata>
Created by potrace 1.15, written by Peter Selinger 2001-2017
</metadata>
<g transform="translate(0.000000,96.000000) scale(0.100000,-0.100000)"
fill="#000000" stroke="none">
<path d="M405 944 c-16 -8 -43 -28 -60 -44 -25 -23 -41 -29 -93 -32 -102 -7
-153 -58 -160 -160 -4 -54 -9 -68 -39 -101 -41 -45 -53 -75 -53 -127 0 -52 12
-82 53 -127 30 -33 35 -47 39 -101 7 -102 58 -153 160 -160 54 -4 68 -9 101
-39 45 -41 75 -53 127 -53 52 0 82 12 127 53 33 30 47 35 101 39 102 7 153 58
160 160 4 54 9 68 39 101 41 45 53 75 53 127 0 52 -12 82 -53 127 -30 33 -35
47 -39 101 -7 102 -58 153 -160 160 -54 4 -68 9 -101 39 -21 19 -49 38 -63 43
-38 15 -105 12 -139 -6z m162 -264 c11 -7 25 -22 32 -32 19 -30 16 -96 -4
-118 -17 -19 -17 -21 7 -45 54 -53 41 -147 -24 -181 -22 -11 -66 -19 -130 -22
l-98 -5 0 213 0 213 98 -6 c55 -3 108 -11 119 -17z"/>
<path d="M420 410 l0 -60 59 0 c51 0 62 3 75 22 38 55 3 98 -79 98 l-55 0 0
-60z"/>
</g>
</svg>
