<svg width="20" height="20" xmlns="http://www.w3.org/2000/svg"><path d="M19.06 7.7337l-.701-.7a1.2171 1.2171 0 0 1-.352-.851v-.991c0-1.766-1.437-3.202-3.203-3.202h-.99c-.321 0-.623-.125-.851-.353l-.7-.7c-1.249-1.25-3.281-1.248-4.53 0l-.7.7c-.228.228-.53.353-.851.353h-.99c-1.766 0-3.203 1.436-3.203 3.202v.991c0 .316-.129.627-.352.851l-.701.7c-1.248 1.249-1.248 3.28 0 4.529l.701.7c.223.224.352.534.352.851v.991c0 1.766 1.437 3.202 3.203 3.202h.99c.321 0 .623.125.851.353l.7.7c.625.625 1.445.936 2.265.936.82 0 1.64-.312 2.265-.936l.7-.7c.228-.228.53-.353.851-.353h.99c1.766 0 3.203-1.436 3.203-3.202v-.991c0-.317.129-.627.352-.851l.702-.7c1.247-1.249 1.247-3.28-.001-4.529m-4.594.3223l-1.638.42c-.4387-1.1387-1.246-1.708-2.422-1.708-.8027 0-1.47.2847-2.002.854-.5227.5787-.784 1.4047-.784 2.478 0 1.0733.2613 1.8993.784 2.478.532.5693 1.1993.854 2.002.854 1.176 0 1.9833-.5693 2.422-1.708l1.638.42c-.2333.9427-.7023 1.673-1.407 2.191-.7047.518-1.589.777-2.653.777-1.288 0-2.3847-.4433-3.29-1.33-.896-.8867-1.344-2.114-1.344-3.682s.448-2.7953 1.344-3.682c.9053-.8867 2.002-1.33 3.29-1.33 1.064 0 1.9483.259 2.653.777.7047.518 1.1737 1.2483 1.407 2.191z" fill="#007FFF" fill-rule="evenodd"/></svg>