<svg width="20" height="20" xmlns="http://www.w3.org/2000/svg"><path d="M19.06 7.7337l-.701-.7a1.2171 1.2171 0 0 1-.352-.851v-.991c0-1.766-1.437-3.202-3.203-3.202h-.99c-.321 0-.623-.125-.851-.353l-.7-.7c-1.249-1.25-3.281-1.248-4.53 0l-.7.7c-.228.228-.53.353-.851.353h-.99c-1.766 0-3.203 1.436-3.203 3.202v.991c0 .316-.129.627-.352.851l-.701.7c-1.248 1.249-1.248 3.28 0 4.529l.701.7c.223.224.352.534.352.851v.991c0 1.766 1.437 3.202 3.203 3.202h.99c.321 0 .623.125.851.353l.7.7c.625.625 1.445.936 2.265.936.82 0 1.64-.312 2.265-.936l.7-.7c.228-.228.53-.353.851-.353h.99c1.766 0 3.203-1.436 3.203-3.202v-.991c0-.317.129-.627.352-.851l.702-.7c1.247-1.249 1.247-3.28-.001-4.529M9.545 15H6.479V5.2h3.066c.5973 0 1.162.098 1.694.294.532.196 1.015.4853 1.449.868.434.3827.7793.896 1.036 1.54.2567.644.385 1.3767.385 2.198 0 .8213-.1283 1.554-.385 2.198-.2567.644-.602 1.1573-1.036 1.54-.434.3827-.917.672-1.449.868-.532.196-1.0967.294-1.694.294zM8.299 6.88v6.44h.672c.8587 0 1.596-.21 2.212-.63.7187-.476 1.078-1.3393 1.078-2.59s-.3593-2.114-1.078-2.59c-.616-.42-1.3533-.63-2.212-.63h-.672z" fill="#007FFF" fill-rule="evenodd"/></svg>