<svg width="20" height="20" xmlns="http://www.w3.org/2000/svg"><path d="M19.06 7.7337l-.701-.7a1.2171 1.2171 0 0 1-.352-.851v-.991c0-1.766-1.437-3.202-3.203-3.202h-.99c-.321 0-.623-.125-.851-.353l-.7-.7c-1.249-1.25-3.281-1.248-4.53 0l-.7.7c-.228.228-.53.353-.851.353h-.99c-1.766 0-3.203 1.436-3.203 3.202v.991c0 .316-.129.627-.352.851l-.701.7c-1.248 1.249-1.248 3.28 0 4.529l.701.7c.223.224.352.534.352.851v.991c0 1.766 1.437 3.202 3.203 3.202h.99c.321 0 .623.125.851.353l.7.7c.625.625 1.445.936 2.265.936.82 0 1.64-.312 2.265-.936l.7-.7c.228-.228.53-.353.851-.353h.99c1.766 0 3.203-1.436 3.203-3.202v-.991c0-.317.129-.627.352-.851l.702-.7c1.247-1.249 1.247-3.28-.001-4.529m-1.414 3.115l-.701.7c-.605.605-.938 1.409-.938 2.265v.991c0 .663-.539 1.202-1.203 1.202h-.99c-.855 0-1.66.333-2.265.939l-.7.7c-.469.469-1.233.469-1.702 0l-.7-.7c-.605-.606-1.409-.939-2.265-.939h-.99c-.664 0-1.203-.539-1.203-1.202v-.991c0-.856-.333-1.66-.938-2.265l-.7-.7c-.47-.469-.47-1.232-.001-1.701l.701-.7c.605-.605.938-1.41.938-2.265v-.991c0-.663.539-1.202 1.203-1.202h.99c.856 0 1.66-.333 2.265-.939l.7-.7c.469-.469 1.233-.469 1.702 0l.7.7c.605.606 1.41.939 2.265.939h.99c.664 0 1.203.539 1.203 1.202v.991c0 .855.333 1.66.938 2.265l.701.7c.469.469.469 1.232 0 1.701M14.13 15h-1.526l-.154-1.05c-.5227.7747-1.316 1.162-2.38 1.162-1.26 0-2.3287-.4387-3.206-1.316-.8773-.8773-1.316-2.1093-1.316-3.696s.4527-2.8187 1.358-3.696c.9053-.8773 2.0067-1.316 3.304-1.316 1.036 0 1.9087.2777 2.618.833.7093.5553 1.1947 1.309 1.456 2.261l-1.666.434c-.504-1.232-1.3067-1.848-2.408-1.848-.8587 0-1.5423.2893-2.051.868-.5087.5787-.763 1.4-.763 2.464 0 1.092.2497 1.9203.749 2.485.4993.5647 1.1737.847 2.023.847.6347 0 1.1433-.1773 1.526-.532.3827-.3547.6067-.798.672-1.33h-1.82v-1.512h3.584z" fill="#3D5266" fill-rule="evenodd"/></svg>