<svg width="16" height="16" viewBox="0 0 16 16" fill="none" xmlns="http://www.w3.org/2000/svg">
<path fill-rule="evenodd" clip-rule="evenodd" d="M13.3878 1.73251C12.4115 0.75583 10.8285 0.755829 9.85223 1.73251L2.29291 9.2907C2.16476 9.41891 2.07384 9.57955 2.02988 9.75545L1.02988 13.757C0.944685 14.0979 1.04453 14.4585 1.29291 14.707C1.54129 14.9554 1.90178 15.0553 2.24256 14.9701L6.24256 13.9697C6.41839 13.9258 6.57897 13.8348 6.70713 13.7066L14.2664 6.1484C15.2428 5.17172 15.2428 3.58821 14.2664 2.61152L13.3878 1.73251ZM11.2664 3.14726C11.4617 2.95193 11.7783 2.95193 11.9735 3.14726L12.8522 4.02628C13.0475 4.22161 13.0475 4.53832 12.8522 4.73365L11.5 6.08639L9.91421 4.5L11.2664 3.14726ZM8.5 5.91475L3.90299 10.5095L3.37439 12.6247L5.48877 12.0959L10.0858 7.50114L8.5 5.91475Z" fill="#BC0D80"/>
</svg>
