<svg width="20" height="20" viewBox="0 0 20 20" fill="none" xmlns="http://www.w3.org/2000/svg">
<path d="M9 8C9 9.10457 8.10457 10 7 10C5.89543 10 5 9.10457 5 8C5 6.89543 5.89543 6 7 6C8.10457 6 9 6.89543 9 8Z" fill="#7A8A99"/>
<path d="M13 10C14.1046 10 15 9.10457 15 8C15 6.89543 14.1046 6 13 6C11.8954 6 11 6.89543 11 8C11 9.10457 11.8954 10 13 10Z" fill="#7A8A99"/>
<path fill-rule="evenodd" clip-rule="evenodd" d="M8 0H12C14.1217 0 16.1566 0.842855 17.6569 2.34315C19.1571 3.84344 20 5.87827 20 8C20 10.1217 19.1571 12.1566 17.6569 13.6569C16.1566 15.1571 14.1217 16 12 16V19.5C7 17.5 0 14.5 0 8C0 5.87827 0.842855 3.84344 2.34315 2.34315C3.84344 0.842855 5.87827 0 8 0ZM10 16.48V14H12C12.7879 14 13.5681 13.8448 14.2961 13.5433C15.0241 13.2417 15.6855 12.7998 16.2426 12.2426C16.7998 11.6855 17.2417 11.0241 17.5433 10.2961C17.8448 9.56815 18 8.78793 18 8C18 7.21207 17.8448 6.43185 17.5433 5.7039C17.2417 4.97595 16.7998 4.31451 16.2426 3.75736C15.6855 3.20021 15.0241 2.75825 14.2961 2.45672C13.5681 2.15519 12.7879 2 12 2H8C6.4087 2 4.88258 2.63214 3.75736 3.75736C2.63214 4.88258 2 6.4087 2 8C2 11.61 4.462 13.966 10 16.48Z" fill="#7A8A99"/>
</svg>
